<?xml version="1.0" encoding="utf-8"?>
<!-- Generator: Adobe Illustrator 16.0.4, SVG Export Plug-In . SVG Version: 6.00 Build 0)  -->
<!DOCTYPE svg PUBLIC "-//W3C//DTD SVG 1.1//EN" "http://www.w3.org/Graphics/SVG/1.1/DTD/svg11.dtd">
<svg version="1.1" id="Layer_1" xmlns="http://www.w3.org/2000/svg" xmlns:xlink="http://www.w3.org/1999/xlink" x="0px" y="0px"
	 width="278.05px" height="73px" viewBox="0 0 278.05 73" enable-background="new 0 0 278.05 73" xml:space="preserve">
<g id="_x33__colour_flat_logo">
	<path fill="#006BB6" d="M188.174,41.264c-1.882-2.314-11.279-9.862-36.148-19.798c0,0,5.347-6.957,26.098-9.272
		c0,0,0.022-6.018-0.517-7.943c0,0-13.135-1.49-29.457,9.381c0,0,0.363,4.998,1.631,8.14c0,0,1.824,4.455-1.115,7.724
		c0,0,11.901,3.006,23.037,10.469c0,0,7.562,0.805,12.753,1.506C185.258,41.347,188.174,41.264,188.174,41.264"/>
	<path fill="#006BB6" d="M171.562,30.266l4.337,10.102c0,0,8.304,0.899,13.146,1.799C189.045,42.167,186.124,37.68,171.562,30.266"
		/>
	<path fill="#006BB6" d="M128.336,22.113c-12.139,5.986-20.503,18.472-20.503,18.472c0.888,2.352,1.359,4.423,1.359,4.423
		c0.551-0.287,10.357-2.958,10.357-2.958c6.091-10.152,16.355-13.621,16.355-13.621c-6.118-2.822-8.065-16.354-8.262-16.479
		C106.463-1.117,91.475,0.277,91.475,0.277c1.829,3.761,3.579,8.36,3.579,8.36C118.682,13.042,128.336,22.113,128.336,22.113"/>
	<path fill="#006BB6" d="M33.995,43.431c0-0.836-0.526-1.263-1.567-1.263l-1.909,0.045l-1.887,0.046l-3.838-0.091
		c-0.635,0-1.955,0-1.955,1.308c0,1.131,0.933,1.146,1.492,1.152l0.463,0.022c0.936,0.126,1.644,0.397,2.045,1.303
		c0.314,0.729,0.314,2.16,0.314,3.013v9.791c-1.15-1.471-11.695-14.976-11.695-14.976l-0.296-0.383
		c-0.846-1.108-0.992-1.229-2.66-1.229H4.913c-0.595,0-1.825,0-1.825,1.176c0,1.225,1.153,1.271,1.775,1.296l0.242,0.009
		c1.558,0.099,1.661,1.255,1.649,3.144v0.368v13.874v0.617c0.012,1.426,0.025,3.379-0.367,4.523
		c-0.278,0.787-0.641,1.053-1.49,1.091c-0.007,0-0.256,0.013-0.256,0.013c-0.651,0.025-1.855,0.073-1.855,1.298
		c0,0.818,0.568,1.31,1.522,1.31l4.097-0.181l4.052,0.181c1.039,0,1.655-0.491,1.655-1.31c0-1.214-1.285-1.272-1.904-1.298
		l-0.236-0.013c-1.147-0.089-1.835-0.341-2.189-1.439c-0.283-0.881-0.283-3.214-0.283-4.215V48.953
		c1.184,1.53,16.395,21.167,16.395,21.167c-0.001-0.002,0.185,0.251,0.185,0.251C26.638,71.134,27.272,72,28.415,72
		c0.607,0,1.015-0.131,1.275-0.403c0.3-0.318,0.347-0.75,0.347-1.248c0-0.114-0.001-0.234-0.006-0.356l-0.004-0.414V48.427
		l-0.004-0.54c-0.004-0.161-0.007-0.316-0.007-0.466c0-1.615,0.182-2.602,1.466-2.773l0.532-0.016c0.604,0,1.287,0,1.688-0.415
		C33.897,44.017,33.995,43.755,33.995,43.431"/>
	<path fill="#006BB6" d="M49.808,69.026c-3.436,0-5.571-3.2-6.539-5.11c-1.242-2.527-1.899-5.537-1.899-8.706
		c0-3.959,1.44-11.45,6.886-11.45c6.376,0,8.439,9.276,8.439,13.771C56.694,61.505,55.255,69.026,49.808,69.026 M48.515,41.455
		c-4.323,0-7.99,1.506-10.904,4.479c-2.837,2.841-4.465,6.71-4.465,10.616c0,4.353,1.938,8.616,5.055,11.135
		c2.708,2.209,7.168,3.691,11.091,3.691c8.715,0,15.54-6.59,15.54-15.006C64.831,46.682,56.421,41.455,48.515,41.455"/>
	<path fill="#006BB6" d="M88.215,47.341c0.543-1.336,1.012-2.496,2.405-2.693c0.003,0,0.377-0.033,0.377-0.033
		c0.581-0.038,1.661-0.108,1.661-1.14c0-0.393-0.155-1.308-1.567-1.308l-3.667,0.091l-3.709-0.091c-0.474,0-1.738,0-1.738,1.222
		c0,1.21,1.093,1.226,1.743,1.237l0.469,0.023c0.482,0.052,1.28,0.274,1.28,1.193c0,0.641-0.405,1.813-0.79,2.704
		c0,0-4.188,10.534-4.762,11.984c-0.593-1.468-5.5-13.585-5.5-13.585c-0.19-0.468-0.479-1.178-0.479-1.595
		c0-0.414,0.412-0.672,0.709-0.701c0.007,0,0.542-0.021,0.542-0.021c0.759,0,2.026-0.005,2.026-1.285
		c0-0.306-0.101-0.571-0.289-0.766c-0.416-0.424-1.125-0.418-1.645-0.41h-0.148l-5.005,0.179l-6.123-0.179L63.8,42.167
		c-0.498-0.013-1.12-0.03-1.505,0.362c-0.188,0.193-0.289,0.453-0.289,0.769c0,1.253,0.996,1.324,1.371,1.352
		c-0.018,0,0.076,0.009,0.076,0.009c0.652,0.081,1.081,0.131,1.443,0.574c0.49,0.649,1.102,2.139,1.278,2.582
		c0.002,0.006,9.062,21.642,9.062,21.642c-0.004-0.003,0.147,0.39,0.147,0.39c0.323,0.858,0.574,1.531,1.906,1.531
		c1.092,0,1.395-0.63,1.677-1.453c-0.012,0.021,8.916-21.795,8.916-21.795C87.878,48.141,88.215,47.341,88.215,47.341"/>
	<path fill="#006BB6" d="M92.794,59.656h0.021H92.794z"/>
	<path fill="#006BB6" d="M92.814,59.656c-0.009,0.002-0.015,0.002-0.019,0.004c-0.002-0.002-0.002-0.002-0.003-0.004h-0.03h0.03
		c0,0,0-0.002-0.003-0.005c-0.002-0.003,0.497-1.185,0.497-1.185c0.104-0.163,0.229-0.525,0.315-0.765l0.182-0.457
		c-0.006,0.016,1.756-4.536,2.501-6.461c0.514,1.382,2.51,6.485,2.51,6.485c-0.006-0.016,0.211,0.487,0.211,0.487
		s0.696,1.802,0.734,1.899c-0.028,0.018,0.023,0.018,0.104,0.01v0.025L92.814,59.656z M112.983,68.28l-0.282-0.013
		c-0.729-0.037-1.02-0.215-1.498-0.913c-0.398-0.599-0.857-1.738-1.036-2.197c-0.004-0.009-8.888-21.693-8.888-21.693l-0.194-0.497
		c-0.38-0.991-0.642-1.509-2.036-1.509c-1.738,0-2.054,0.818-2.489,1.957l-0.212,0.542l-5.005,12.23l-2.372,6.153l-0.437,1.188
		c-0.427,1.181-0.958,2.65-1.357,3.414c-0.57,1.059-0.858,1.11-2.075,1.327c-0.579,0.093-1.507,0.241-1.507,1.307
		c0,0.598,0.298,1.31,1.696,1.31l4.056-0.093l4.054,0.093c1.551,0,1.782-0.822,1.782-1.31c0-1.216-1.154-1.381-2.085-1.51
		c-1.359-0.19-2.446-0.345-2.327-1.683c0.053-0.596,0.336-1.402,0.471-1.826l0.131-0.391l0.081-0.23
		c0.31-0.856,0.47-1.46,1.695-1.453h6.14c1.656-0.061,1.704,0.759,2.05,1.733l0.093,0.26c0.004,0.004,0.65,1.666,0.65,1.666
		c0.162,0.421,0.405,1.054,0.405,1.558c0,0.409-0.305,0.508-1.218,0.604c-0.761,0.08-1.8,0.187-1.8,1.272
		c0,0.866,0.584,1.31,1.737,1.31l6.298-0.181l5.262,0.181c0.451,0,1.824,0,1.824-1.31C114.59,68.326,113.585,68.296,112.983,68.28"
		/>
	<polygon fill="#006BB6" points="254.315,59.656 254.294,59.656 254.318,59.656 	"/>
	<path fill="#006BB6" d="M254.315,59.656c-0.011,0.002-0.012,0.002-0.021,0.004v-0.004h-0.033h0.033
		c-0.004,0-0.004-0.002-0.006-0.005c0-0.003,0.498-1.185,0.498-1.185c0.105-0.163,0.228-0.525,0.315-0.765l0.184-0.457
		c-0.01,0.016,1.751-4.536,2.501-6.461c0.515,1.382,2.508,6.485,2.508,6.485c-0.008-0.016,0.209,0.487,0.209,0.487
		s0.7,1.802,0.737,1.899c-0.031,0.018,0.023,0.018,0.106,0.01v0.025L254.315,59.656z M274.483,68.28l-0.282-0.013
		c-0.727-0.037-1.02-0.215-1.495-0.913c-0.402-0.599-0.861-1.738-1.037-2.197c-0.007-0.009-8.888-21.693-8.888-21.693l-0.2-0.497
		c-0.374-0.991-0.64-1.509-2.033-1.509c-1.74,0-2.057,0.818-2.491,1.957l-0.207,0.542l-5.009,12.23l-2.374,6.153l-0.432,1.188
		c-0.428,1.181-0.96,2.65-1.36,3.414c-0.569,1.059-0.754,1.154-1.972,1.369c-0.104,0.017-0.326,0-0.444,0.023
		c-0.124-0.025-0.248-0.049-0.35-0.065c-2.25-0.37-2.247-1.058-2.241-3.334v-0.446v-15.84v-0.575
		c-0.014-2.501-0.014-3.022,2.423-3.43c0.559-0.096,1.507-0.256,1.507-1.257c0-0.812-0.482-1.222-1.437-1.222l-3.067,0.089
		l-3.102,0.09l-6.64-0.179c-0.346,0-1.394,0-1.394,1.222c0,1.001,0.982,1.152,1.512,1.232l0.165,0.025
		c2.226,0.398,2.223,1.084,2.204,3.359l-0.003,0.646v16.202c0.006,2.601,0.006,3.001-2.418,3.418c-1.21,0.207-1.46,0.878-1.46,1.396
		c0,0.552,0.237,1.221,1.394,1.221l6.206-0.181l6.643,0.181v-0.005c0.176,0.011,0.365,0.014,0.593,0.005l4.053-0.093l4.053,0.093
		c1.554,0,1.788-0.822,1.788-1.31c0-1.216-1.16-1.381-2.087-1.51c-1.362-0.19-2.449-0.345-2.332-1.683
		c0.053-0.596,0.34-1.402,0.477-1.826l0.129-0.391l0.079-0.23c0.308-0.856,0.474-1.46,1.692-1.453h6.146
		c1.655-0.061,1.699,0.759,2.045,1.733l0.095,0.26c0.003,0.004,0.649,1.666,0.649,1.666c0.16,0.421,0.403,1.054,0.403,1.558
		c0,0.409-0.307,0.508-1.217,0.604c-0.757,0.08-1.798,0.187-1.798,1.272c0,0.866,0.58,1.31,1.739,1.31l6.295-0.181l5.262,0.181
		c0.455,0,1.825,0,1.825-1.31C276.09,68.326,275.085,68.296,274.483,68.28"/>
	<path fill="#006BB6" d="M134.609,51.956c0.005,0-2.195-0.757-2.195-0.757c-1.802-0.606-3.726-1.429-3.726-3.529
		c0-2.248,2.349-3.643,4.519-3.643c2.149,0,3.575,1.422,4.619,4.61c0.126,0.429,0.433,1.457,1.507,1.457
		c0.352,0,0.632-0.107,0.843-0.324c0.386-0.406,0.378-1.057,0.378-1.579v-3.196v-0.3c0.016-0.721,0.03-1.54-0.886-2.037
		c-1.45-0.774-4.331-1.2-5.772-1.2c-5.565,0-11.574,3.586-11.574,9.38c0,4.908,4.89,7.024,7.813,8.282
		c0.005,0.004,0.885,0.357,0.885,0.357c2.492,0.997,5.32,2.123,5.32,5.101c0,3.196-3.294,4.36-5.506,4.36
		c-1.246,0-2.99-0.264-4.236-1.504c-0.933-0.965-1.222-2.037-1.591-3.399l-0.113-0.416c-0.206-0.783-0.546-2.09-1.736-2.09
		c-0.31,0-0.574,0.115-0.774,0.328c-0.49,0.518-0.467,1.521-0.454,2.186l0.008,0.269v2.453l-0.003,0.345
		c-0.012,1.244-0.015,1.997,1.45,2.754c1.877,0.948,5.261,1.513,7.45,1.513c3.277,0,6.022-0.93,8.163-2.761
		c2.277-2.006,3.582-4.712,3.582-7.429C142.579,55.343,138.319,53.184,134.609,51.956"/>
	<path fill="#006BB6" d="M170.174,62.155c-0.802,0-1.184,0.663-1.403,1.153c-0.686,1.336-1.466,2.872-2.748,3.975
		c-1.271,1.051-2.758,1.607-4.298,1.607c-2.77,0-5.333-1.561-7.029-4.288c-1.335-2.171-2.1-5.218-2.1-8.365
		c0-3.225,0.837-6.303,2.307-8.443c1.669-2.41,4.221-3.854,6.822-3.854c3.486,0,4.783,1.948,5.822,3.515
		c0.641,0.962,1.196,1.791,2.112,1.791c0.706,0,1.182-0.451,1.182-1.127l-0.159-1.257l-0.024-0.113c0,0.016-0.339-2.258-0.339-2.258
		c-0.007-0.008-0.02-0.106-0.02-0.106c-0.22-1.266-0.317-1.58-1.613-1.976c-2.014-0.588-4.53-0.954-6.576-0.954
		c-4.557,0-9.166,1.426-12.325,3.821c-3.631,2.802-5.717,6.941-5.717,11.362c0,4.32,2.157,8.675,5.626,11.36
		c2.765,2.147,6.97,3.377,11.558,3.377c2.333,0,5.692-0.367,8.467-2.104c1.421-0.855,1.463-1.59,1.541-2.919
		c0,0,0.01-0.228,0.01-0.232c0-0.004,0.129-1.87,0.129-1.87c0.01-0.135,0.021-0.304,0.021-0.479c0-0.429-0.061-0.923-0.366-1.261
		C170.841,62.277,170.542,62.155,170.174,62.155"/>
	<path fill="#006BB6" d="M230.11,43.384l-0.468,4.81c-0.064,0.694-0.169,1.858-1.275,1.858c-0.518,0-1.222-0.275-1.669-1.57
		c-1.193-3.062-1.606-3.786-5.06-3.786c-0.804,0-0.804,0-0.804,0.924v18.872l-0.005,0.444c-0.011,2.278-0.011,2.966,2.243,3.336
		c0.548,0.088,1.687,0.269,1.687,1.394c0,0.367-0.138,1.218-1.392,1.218l-6.643-0.176l-6.213,0.176c-1.152,0-1.4-0.664-1.4-1.218
		c0-0.516,0.256-1.184,1.47-1.394c2.313-0.397,2.414-0.782,2.414-3.082V45.674l-0.003-0.126c-0.013-0.333-0.022-0.677-0.072-0.748
		c-0.077-0.057-0.51-0.057-0.771-0.057c-2.678,0-3.785,1.018-5.396,3.444c-0.734,1.15-1.433,1.732-2.066,1.732
		c-0.698,0-1.132-0.522-1.132-1.354l0.173-0.898c0,0,0.054-0.184,0.054-0.181l1.114-4.463c0,0,0.307-0.968,1.486-0.952
		c2.666-0.111,6.102,0.471,22.564,0.066C228.947,42.137,230.266,42.137,230.11,43.384"/>
	<path fill="#006BB6" d="M188.334,68.718c-3.433,0-5.569-3.202-6.541-5.115c-1.237-2.527-1.898-5.538-1.898-8.702
		c0-3.961,1.442-11.451,6.888-11.451c6.377,0,8.441,9.276,8.441,13.77C195.224,61.197,193.782,68.718,188.334,68.718 M183.183,41.6
		c-2.685,0.646-5.046,1.981-7.049,4.023c-2.832,2.841-4.461,6.71-4.461,10.612c0,4.354,1.938,8.62,5.056,11.137
		c2.71,2.209,7.163,3.693,11.09,3.693c8.716,0,15.538-6.596,15.538-15.004c0-9.353-7.823-14.545-15.485-14.898
		C184.484,41.173,183.183,41.6,183.183,41.6"/>
	<g>
		<defs>
			<path id="SVGID_1_" d="M127.59,11.299c1.017,5.809,2.885,10.515,2.885,10.515c2.766,6.757,9.153,8.921,9.153,8.921
				c3.468,1.5,4.093,2.233,4.093,2.233c9.773-3.609,5.745-12.09,5.745-12.09c-1.251-3.912-1.233-6.856-1.244-7.805
				c0,0,0.039-0.584-0.296-0.536c-0.499,0.078-0.98,0.161-0.98,0.161c-0.525,0.095-0.896,0.091-1.02,0.095
				c-1.987,0.066-4.032-0.522-4.032-0.522c-4.18-1.249-6.742-1.554-6.742-1.554c-0.837-0.104-1.63-0.146-2.372-0.146
				C129.701,10.572,127.59,11.299,127.59,11.299"/>
		</defs>
		<use xlink:href="#SVGID_1_"  overflow="visible" fill="#F7CF64"/>
		<clipPath id="SVGID_2_">
			<use xlink:href="#SVGID_1_"  overflow="visible"/>
		</clipPath>
		<polygon clip-path="url(#SVGID_2_)" fill="#F7CF64" points="117.418,17.939 144.973,-2.019 163.667,25.598 136.112,45.558 		"/>
	</g>
	<path fill="#ED1C2E" d="M140.218,27.158c0,0-1.466-1.693,0.831-1.154c0,0,0.226,0.02,0.216-0.001
		c0.2,0.035,0.407,0.027,0.431,0.228c0.21,0.479,0.398,0.79,0.843,0.971c0,0,0.426,0.21,1.383,0.175c0,0-0.14,0.595-0.702,1.026
		c0,0-0.458,0.159-0.41,1.035c0,0-0.354,0.118-0.945-0.219c0,0-0.688-0.222-0.694,0.358c0,0,0.581-0.182,0.787,0.076
		c0,0-0.751,0.216-0.411,0.939c0,0,0.584,0.222,1.224-0.682c0,0,0.131,0.07,0.138,0.181c0,0-0.802,0.176,0.536,1.16
		c0,0-0.268-1.016,0.183-1.05c0,0,0.525,0.147,0.666,0.725c0,0,0.143-0.684,0.367-0.758c0,0-0.932-0.874,0.125-0.726
		c0,0,0.179-0.104-0.215-0.397c0,0,0.426-0.216,0.686,0.003c0,0-0.14-0.185-0.05-0.326h0.646c0,0-0.925-0.362,0.347-0.904
		c0,0-0.569-0.289-0.002-0.399c0,0,0.254,0.001,0.179-0.687c0,0-1.841,1.081-2.212-1.125c0,0,1.138-0.409,1.549,0.69
		c0,0,0.223-0.179-0.051-0.834c0,0,0.79-0.397,0.3-2.49c0,0-0.055-0.173,0.459-0.438c0,0,0.926-0.585-0.735-1.115
		c0,0,0.661,0.78-0.11,1.041c0,0-1.906-2.322-0.963-4.479c0,0,0.432-1.206,0.173-2.27c-0.215-0.9-1.495-2.139-2.93-1.3
		c0,0,1.158,0.298,1.076,1.273c-0.059,0.646-0.769,1.372-0.232,3.104c0.29,0.931,0.845,1.911,1.557,2.717
		c0,0,0.497,0.57,0.716,1.062c0,0-0.403-0.233-0.775-0.254c0,0-1.127-0.127,0.06,1.085c-0.125-0.138-0.662-0.797,0.95-0.371
		c0,0,0.991,1.861-0.123,2.145c0,0-0.729,0.071-1.269-0.619c0,0-1.041-1.268-1.393-1.743c0,0-1.43-1.24-1.465-3.086
		c0,0-0.052-0.688,0.454-0.847c0,0,0-0.002-0.003-0.003c0.017-0.038,0.017-0.064,0.017-0.064c-1.213-1.285-0.445-2.006-0.445-2.006
		c0.231,0.035,0.307-0.144,0.307-0.144s-0.706-0.761-0.73-0.907c-0.01-0.146,0.276-0.326,0.276-0.326l-0.411-0.436
		c-0.34-0.145-0.436-1.194-0.436-1.194l-0.337,0.068c-0.26-0.506-0.838-0.905-0.838-0.905c0.008,0.545-1.016,0.641-1.016,0.641
		c-0.514-0.268-1.135-0.03-1.135-0.03c-0.633-0.073,0.016,0.612,0.016,0.612c0.148,0.422,0.915,0.729,0.915,0.729l0.671,0.365
		c-0.054,0.145-0.438,0.069-0.438,0.069c-0.579-0.399-1.19-0.273-1.19-0.273c-0.517,0.252-0.609-0.289-0.609-0.289
		c-0.389,0.719,0.938,0.689,0.938,0.689c0.898,0.017,1.169,0.417,1.169,0.417c-0.782-0.073-0.758,0.286-0.758,0.286
		c-0.615-0.107-0.739,0.433-0.739,0.433c-0.362,0.138-0.171,0.736-0.171,0.736c0.805,0.943,0.068,0.72-0.644,0.513l-0.429-0.123
		c0.142-0.687-0.604-2.028-0.604-2.028c-1.042-1.561-0.601-1.922-0.601-1.922c0.658-0.757-0.156-1.012-0.156-1.012
		c0.242,0.365-0.062,0.521-0.062,0.521c-0.616-0.883-1.11-0.779-1.11-0.779c0.729,0.725,0.384,0.94,0.384,0.94
		c-0.959-0.94-1.449-0.51-1.449-0.51c0.507,0.115,0.501,0.582,0.501,0.582c0.17,0.365,0.49,0.255,0.49,0.255
		c0.545,0.4,0.015,0.435,0.015,0.435c-0.112-0.216-0.276-0.045-0.276-0.045c-0.25,0-0.464-0.027-0.464-0.027
		c0.131,0.701,1.187,0.65,1.233,0.613c0.852,1.343,0.222,1.777,0.222,1.777c0.695,1.304,0,1.264,0,1.264
		c0.404,0.04,0.6,0.368,0.6,0.368c0.121,0.434-0.479,0.359-0.479,0.359c0.386,0.364,1.191,0.404,1.191,0.404
		c0.448,0.352,0.659,0.461,0.736,0.525c0.272,0.164,0.734,0.303,1.218,0.272c0.026,0.084,0.005,0.063,0.07,0.174
		c0,0-1.332,0.981-2.744,0.937c0,0-0.178-0.179-0.441-0.507c0,0-0.491-0.361-0.611,0c0,0,0.585,0.214,0.535,0.553l-0.82-0.156
		c0,0,0.139,0.18,0.23,0.328c0,0,0.11,0.391,0.906,0.218c0,0,0.14,0.18,0.044,0.213c0,0-0.402,0.139-0.255,0.583
		c0,0,0.357,0.021,0.508-0.106c0,0,0.156-0.063,0.137-0.289h0.358c0,0,0.577-0.088,0.318,0.5c0,0,0.248,0.122,0.487-0.46
		c0,0,0.357-0.212,0.525,0.329c0,0,0.162-0.512,0.687-0.362c0,0,0.015,0.139-0.125,0.253c0,0,0.336,0.162,0.439-0.182
		c0,0,0.466-0.213,0.508,0.186c0,0,0.224-0.555,0.24-0.697c0,0,0.799,0.316,0.652,0.567c0,0,0.126,0.123,0.368,0.048
		c0,0,0.852,0.91,2.011,1.75c-0.567-0.012-0.949,0.02-1.062,0.052c-0.024-0.024-0.275-0.078-0.292-0.091
		c0,0-0.699-0.151-0.867,0.124c0,0-0.6,0.325-0.261,1.338c0,0-0.203,0.661-0.552,0.301c0,0-0.583-0.403-1.196-0.51
		c0,0-0.845-0.294-1.08-0.85c0,0-0.357-0.615-0.991,0.011c0,0,0.44,0.107,0.572,0.362c0,0,0.253,0.248,0.519,0.256
		c0,0,0.125,0.145,0.079,0.214c0,0-1.269-0.185-0.874,0.653c0,0,0.181-0.29,0.638,0.07c0,0,0.364,0.109,0.458-0.214
		c0,0,0.541,0.292-0.101,0.799c0,0,0.446,0.327,0.837-0.362c0,0,0.547,0.108,0.782,0.945c0,0,0.558-0.77,0.865,0.065
		c0,0,0.242-0.507,0.432,0.289c0,0,0.379,0.256,0.719,0.004C139.43,27.065,139.576,27.316,140.218,27.158"/>
</g>
</svg>
