<?xml version="1.0" encoding="utf-8"?>
<!-- Generator: Adobe Illustrator 16.0.4, SVG Export Plug-In . SVG Version: 6.00 Build 0)  -->
<!DOCTYPE svg PUBLIC "-//W3C//DTD SVG 1.1//EN" "http://www.w3.org/Graphics/SVG/1.1/DTD/svg11.dtd">
<svg version="1.1" id="Layer_1" xmlns="http://www.w3.org/2000/svg" xmlns:xlink="http://www.w3.org/1999/xlink" x="0px" y="0px"
	 width="36.413px" height="295px" viewBox="0 0 36.413 295" enable-background="new 0 0 36.413 295" xml:space="preserve">
<g>
	<g>
		
			<rect x="-1.66" y="7.932" transform="matrix(0.7071 -0.7071 0.7071 0.7071 -4.448 11.1363)" fill="#FFFFFF" width="25.757" height="6.01"/>
		
			<rect x="12.303" y="7.933" transform="matrix(-0.7071 -0.7071 0.7071 -0.7071 35.254 36.4782)" fill="#FFFFFF" width="25.757" height="6.01"/>
	</g>
	<g>
		
			<rect x="12.303" y="65.816" transform="matrix(-0.7071 0.7071 -0.7071 -0.7071 91.652 99.6786)" fill="#FFFFFF" width="25.757" height="6.01"/>
		
			<rect x="-1.66" y="65.816" transform="matrix(0.7071 0.7071 -0.7071 0.7071 51.9502 12.225)" fill="#FFFFFF" width="25.757" height="6.01"/>
	</g>
</g>
<g>
	<g>
		
			<rect x="5.32" y="136.931" transform="matrix(-0.7071 -0.7071 0.7071 -0.7071 -67.8771 251.759)" fill="#FFFFFF" width="25.758" height="6.011"/>
		
			<rect x="5.321" y="122.968" transform="matrix(-0.7071 0.7071 -0.7071 -0.7071 120.1447 202.1802)" fill="#FFFFFF" width="25.757" height="6.01"/>
	</g>
	<g>
		
			<rect x="5.321" y="194.23" transform="matrix(0.7071 0.7071 -0.7071 0.7071 144.7968 44.8999)" fill="#FFFFFF" width="25.757" height="6.01"/>
		
			<rect x="5.321" y="208.194" transform="matrix(0.7071 -0.7071 0.7071 0.7071 -144.0057 74.7238)" fill="#FFFFFF" width="25.758" height="6.01"/>
	</g>
</g>
</svg>
