<?xml version="1.0" encoding="utf-8"?>
<!-- Generator: Adobe Illustrator 16.0.4, SVG Export Plug-In . SVG Version: 6.00 Build 0)  -->
<!DOCTYPE svg PUBLIC "-//W3C//DTD SVG 1.1//EN" "http://www.w3.org/Graphics/SVG/1.1/DTD/svg11.dtd">
<svg version="1.1" id="Layer_1" xmlns="http://www.w3.org/2000/svg" xmlns:xlink="http://www.w3.org/1999/xlink" x="0px" y="0px"
	 width="32px" height="32px" viewBox="0 0 32 32" enable-background="new 0 0 32 32" xml:space="preserve">
<g display="none">
	<rect x="-0.598" y="-0.637" display="inline" fill="#65CCEF" width="32.959" height="32.965"/>
	<path display="inline" fill="#FFFFFF" d="M24.15,11.528c-0.607,0.27-1.26,0.451-1.945,0.534c0.7-0.419,1.237-1.083,1.489-1.874
		c-0.655,0.388-1.378,0.669-2.151,0.82c-0.616-0.658-1.497-1.069-2.472-1.069c-1.869,0-3.385,1.518-3.385,3.388
		c0,0.266,0.029,0.523,0.087,0.771c-2.814-0.142-5.31-1.488-6.981-3.54c-0.292,0.502-0.458,1.084-0.458,1.706
		c0,1.173,0.598,2.211,1.507,2.819c-0.555-0.017-1.078-0.17-1.535-0.423v0.042c0,1.642,1.167,3.01,2.718,3.321
		c-0.285,0.079-0.583,0.119-0.893,0.119c-0.218,0-0.431-0.02-0.637-0.06c0.431,1.345,1.681,2.325,3.163,2.351
		c-1.159,0.909-2.62,1.45-4.206,1.45c-0.273,0-0.543-0.015-0.808-0.046c1.499,0.96,3.279,1.522,5.192,1.522
		c6.23,0,9.636-5.161,9.636-9.638c0-0.146-0.002-0.293-0.009-0.438C23.123,12.804,23.697,12.208,24.15,11.528"/>
</g>
<g display="none">
	<rect x="-0.598" y="-0.637" display="inline" fill="#517CBE" width="32.959" height="32.965"/>
	<path display="inline" fill="#FFFFFF" d="M11.91,13.055h1.704v-1.656c0-0.73,0.018-1.856,0.549-2.554
		c0.559-0.739,1.326-1.242,2.645-1.242c2.149,0,3.055,0.307,3.055,0.307l-0.426,2.525c0,0-0.71-0.206-1.373-0.206
		c-0.663,0-1.256,0.237-1.256,0.9v1.926h2.717l-0.189,2.466h-2.527v8.567h-3.194v-8.567H11.91V13.055z"/>
</g>
<g display="none">
	<rect x="-0.598" y="-0.637" display="inline" fill="#5B8DAA" width="32.959" height="32.965"/>
	<path display="inline" fill="#FFFFFF" d="M16.066,7.604v4.167h3.91v2.587h-3.91v4.226c0,0.957,0.05,1.57,0.151,1.84
		c0.1,0.272,0.289,0.488,0.566,0.651c0.363,0.219,0.779,0.327,1.25,0.327c0.834,0,1.663-0.271,2.489-0.814v2.602
		c-0.705,0.33-1.342,0.563-1.912,0.696c-0.572,0.135-1.188,0.202-1.852,0.202c-0.754,0-1.42-0.096-1.999-0.285
		c-0.578-0.192-1.073-0.461-1.481-0.814c-0.409-0.352-0.693-0.728-0.851-1.124c-0.158-0.396-0.236-0.972-0.236-1.725v-5.781H10.37
		v-2.333c0.649-0.211,1.203-0.513,1.665-0.904c0.461-0.393,0.833-0.864,1.111-1.416c0.279-0.55,0.472-1.251,0.577-2.101H16.066z"/>
</g>
<g>
	<rect x="-0.598" y="-0.634" fill="#1187C9" width="32.959" height="32.959"/>
	<path fill="#FFFFFF" d="M11.255,22.736H8.043V12.455h3.212V22.736z M9.567,11.167H9.544c-1.162,0-1.917-0.785-1.917-1.781
		c0-1.016,0.777-1.786,1.963-1.786c1.185,0,1.913,0.768,1.937,1.783C11.527,10.378,10.775,11.167,9.567,11.167z M24.107,22.736
		h-3.642v-5.321c0-1.393-0.57-2.343-1.822-2.343c-0.959,0-1.492,0.642-1.739,1.261c-0.093,0.221-0.079,0.53-0.079,0.84v5.563h-3.609
		c0,0,0.047-9.426,0-10.281h3.609v1.612c0.213-0.706,1.365-1.712,3.207-1.712c2.283,0,4.076,1.479,4.076,4.665V22.736z"/>
</g>
<g display="none">
	<g display="inline">
		<rect x="-0.598" y="-0.634" fill="#A2D17E" width="32.959" height="32.959"/>
	</g>
	<g display="inline">
		<rect x="7.411" y="11.388" fill="#FFFFFF" stroke="#FFFFFF" stroke-width="2" stroke-miterlimit="10" width="17" height="11"/>
		<polyline fill="none" stroke="#A2D17E" stroke-miterlimit="10" points="25.091,9.803 15.381,20.22 5.833,9.803 		"/>
		<line fill="none" stroke="#A2D17E" stroke-miterlimit="10" x1="25.091" y1="23.611" x2="19.117" y2="15.831"/>
		<line fill="none" stroke="#A2D17E" stroke-miterlimit="10" x1="5.833" y1="23.611" x2="11.526" y2="16.409"/>
	</g>
</g>
</svg>
