<?xml version="1.0" encoding="utf-8"?>
<!-- Generator: Adobe Illustrator 16.0.4, SVG Export Plug-In . SVG Version: 6.00 Build 0)  -->
<!DOCTYPE svg PUBLIC "-//W3C//DTD SVG 1.1//EN" "http://www.w3.org/Graphics/SVG/1.1/DTD/svg11.dtd">
<svg version="1.1" id="Layer_1" xmlns="http://www.w3.org/2000/svg" xmlns:xlink="http://www.w3.org/1999/xlink" x="0px" y="0px"
	 width="34px" height="34px" viewBox="0 0 34 34" enable-background="new 0 0 34 34" xml:space="preserve">
<rect x="-0.008" y="-0.008" fill="#9ECC91" width="34.016" height="34.016"/>
<path fill="#FFFFFF" d="M16.541,19.871c0.05-1.488-1.207-2.768-2.8-2.851l-0.6-0.031c-0.579-0.029-1.069-0.51-1.069-1.049
	c0-0.52,0.483-0.97,1.046-0.97h3.94c0.563,0,0.998,0.484,0.998,1.047v3.627c0,1.606,1.307,2.911,2.912,2.911h0.476
	c1.605,0,2.912-1.305,2.912-2.911V7.456c-0.07-0.004-0.139-0.021-0.21-0.021h-1.68v12.209c0,0.563-0.458,1.021-1.022,1.021h-0.476
	c-0.563,0-1.022-0.457-1.022-1.021v-3.627c0-1.605-1.305-2.912-2.911-2.912h-3.939c-1.606,0-2.913,1.272-2.913,2.835
	c0,1.536,1.283,2.855,2.859,2.937l0.6,0.031c0.563,0.029,1.026,0.44,1.011,0.9c-0.015,0.465-0.511,0.856-1.082,0.856H7.349v1.891
	h6.222C15.159,22.556,16.491,21.352,16.541,19.871z"/>
</svg>
