<?xml version="1.0" encoding="utf-8"?>
<!-- Generator: Adobe Illustrator 16.0.4, SVG Export Plug-In . SVG Version: 6.00 Build 0)  -->
<!DOCTYPE svg PUBLIC "-//W3C//DTD SVG 1.1//EN" "http://www.w3.org/Graphics/SVG/1.1/DTD/svg11.dtd">
<svg version="1.1" id="Layer_1" xmlns="http://www.w3.org/2000/svg" xmlns:xlink="http://www.w3.org/1999/xlink" x="0px" y="0px"
	 width="34px" height="34px" viewBox="0 0 34 34" enable-background="new 0 0 34 34" xml:space="preserve">
<rect x="-0.008" y="-0.008" fill="#282828" width="34.016" height="34.016"/>
<g>
	<path fill="#FFFFFF" d="M11.042,12.144v2.254H8.483v5.159h4.221v-7.413H11.042z M11.042,18.17h-0.867v-2.345h0.867V18.17z"/>
	<path fill="#FFFFFF" d="M16.171,14.418v5.159h2.56v0.807h-2.589v1.448h3.518h0.734v-7.414H16.171z M18.73,18.15h-0.868v-2.346
		h0.868V18.15z"/>
	<path fill="#FFFFFF" d="M21.271,14.418v5.159h2.558v0.807h-2.589v1.448h3.519h0.733v-7.414H21.271z M23.828,18.15h-0.865v-2.346
		h0.865V18.15z"/>
	<rect x="13.562" y="14.387" fill="#FFFFFF" width="1.723" height="5.19"/>
	<rect x="13.562" y="12.234" fill="#FFFFFF" width="1.723" height="1.408"/>
</g>
</svg>
