<?xml version="1.0" encoding="utf-8"?>
<!-- Generator: Adobe Illustrator 16.0.4, SVG Export Plug-In . SVG Version: 6.00 Build 0)  -->
<!DOCTYPE svg PUBLIC "-//W3C//DTD SVG 1.1//EN" "http://www.w3.org/Graphics/SVG/1.1/DTD/svg11.dtd">
<svg version="1.1" id="Layer_1" xmlns="http://www.w3.org/2000/svg" xmlns:xlink="http://www.w3.org/1999/xlink" x="0px" y="0px"
	 width="210.344px" height="86px" viewBox="0 0 210.344 86" enable-background="new 0 0 210.344 86" xml:space="preserve">
<g>
	<g>
		<path fill="#006BB6" d="M16.955,69.742c0-0.328-0.156-0.717-0.905-0.717l-1.027,0.021l-1.019,0.025l-2.069-0.046
			c-0.286,0-0.678,0-0.923,0.242c-0.126,0.127-0.19,0.294-0.19,0.497c0,0.649,0.561,0.654,0.864,0.658l0.243,0.011
			c0.484,0.065,0.851,0.196,1.055,0.646c0.163,0.367,0.163,1.132,0.163,1.545c0,0,0,3.841,0,4.932
			c-0.783-0.968-6.199-7.672-6.199-7.672L6.79,69.686c-0.465-0.587-0.558-0.66-1.48-0.66H1.218c-0.313,0-1.044,0-1.044,0.669
			c0,0.696,0.687,0.724,1.016,0.735l0.128,0.006c0.76,0.046,0.841,0.539,0.833,1.581l0,0.189v7.23l0.001,0.32
			c0.006,0.739,0.014,1.752-0.196,2.339c-0.142,0.39-0.309,0.509-0.748,0.529c-0.005,0-0.139,0.007-0.139,0.007
			c-0.342,0.013-1.057,0.039-1.057,0.735c0,0.457,0.337,0.74,0.881,0.74l2.208-0.094l2.185,0.094c0.596,0,0.951-0.276,0.951-0.74
			c0-0.692-0.76-0.723-1.084-0.735l-0.126-0.007c-0.604-0.044-0.946-0.166-1.127-0.711c-0.148-0.449-0.148-1.66-0.148-2.175
			c0,0,0-5.767,0-6.95c0.815,1.02,8.732,10.896,8.732,10.896l0.099,0.128c0.31,0.412,0.663,0.874,1.308,0.874
			c0.343,0,0.576-0.072,0.731-0.229c0.175-0.18,0.203-0.416,0.203-0.687c0-0.062-0.002-0.123-0.003-0.19l-0.003-0.214V72.347
			l-0.002-0.284c-0.002-0.083-0.002-0.162-0.002-0.239c0-0.81,0.09-1.306,0.735-1.39l0.283-0.008c0.335,0,0.714,0,0.951-0.234
			C16.86,70.112,16.955,69.969,16.955,69.742z"/>
		<path fill="#006BB6" d="M24.499,68.652c-2.344,0-4.337,0.789-5.92,2.352c-1.541,1.49-2.427,3.522-2.427,5.574
			c0,2.284,1.056,4.527,2.75,5.848c1.47,1.159,3.889,1.936,6.015,1.936c4.731,0,8.438-3.459,8.438-7.877
			C33.355,71.396,28.792,68.652,24.499,68.652z M24.359,69.974c3.393,0,4.49,4.792,4.49,7.115c0,2.051-0.764,5.932-3.653,5.932
			c-1.819,0-2.956-1.648-3.472-2.631c-0.667-1.31-1.016-2.869-1.016-4.509C20.708,73.836,21.47,69.974,24.359,69.974z"/>
		<path fill="#006BB6" d="M77.233,79.74c-0.61,0-0.898,0.68-1.023,0.969c-0.823,1.62-2.364,1.962-3.51,1.962
			c-0.717,0-1.31-0.215-1.587-0.575c-0.345-0.45-0.345-1.377-0.345-1.775v-2.823c-0.003-0.557-0.003-0.615,0.482-0.643
			c-0.003,0,0.996-0.047,0.996-0.047c1.288,0,1.533,0.646,1.77,1.275c0.169,0.448,0.362,0.957,0.987,0.957
			c0.464,0,0.741-0.339,0.741-0.905c-0.047-0.674-0.093-1.363-0.093-1.999c0-0.001,0.093-1.983,0.093-1.987
			c0-0.317-0.073-0.536-0.22-0.683c-0.125-0.123-0.294-0.188-0.499-0.188c-0.625,0-0.837,0.688-0.917,0.942
			c-0.206,0.674-0.471,0.982-0.918,1.062c-0.423,0.09-1.463,0.09-1.909,0.09c-0.218,0-0.366-0.036-0.427-0.094
			c-0.089-0.092-0.088-0.345-0.086-0.637v-3.035c-0.003-0.585,0.07-0.749,0.13-0.784c0.09-0.055,0.447-0.175,1.894-0.175
			c0.646,0,1.26,0.029,1.667,0.399c0.438,0.385,0.79,0.784,1.025,1.154c0.001,0.002,0.034,0.054,0.034,0.054
			c0.173,0.276,0.436,0.691,0.901,0.691c0.24,0,0.418-0.062,0.542-0.187c0.188-0.192,0.182-0.453,0.177-0.683l0-0.104v-1.881
			l0.004-0.19c0.011-0.254,0.026-0.513-0.156-0.699c-0.116-0.122-0.277-0.178-0.497-0.178l-3.657,0.046l-3.619,0.045l-4.14-0.091
			c-0.123,0-0.233,0.017-0.333,0.056c-0.111-0.035-0.246-0.056-0.413-0.056l-1.974,0.046l-2.001-0.046c-0.204,0-0.587,0-0.819,0.229
			c-0.08,0.079-0.178,0.227-0.178,0.465c0,0.688,0.649,0.698,1,0.703l0.247,0.011c0.293,0.032,0.636,0.155,0.636,0.564
			c0,0.325-0.225,0.949-0.419,1.385c0,0-2.125,5.168-2.514,6.115c-0.403-0.964-2.909-6.947-2.909-6.947
			c-0.102-0.243-0.253-0.606-0.253-0.811c0-0.179,0.19-0.291,0.328-0.305c0.006,0,0.287-0.01,0.287-0.01
			c0.403-0.001,1.151-0.004,1.151-0.731c0-0.173-0.06-0.33-0.174-0.439c-0.241-0.239-0.639-0.235-0.929-0.232l-0.079,0.003
			c0,0-2.698,0.091-2.698,0.091l-3.302-0.091l-0.108-0.003c-0.115-0.003-0.247-0.004-0.378,0.011
			c-0.037-0.004-0.076-0.008-0.118-0.008l-1.058,0.021l-1.01,0.025l-2.092-0.046c-0.281,0-0.633,0-0.859,0.226
			c-0.123,0.12-0.186,0.288-0.186,0.491c0,0.666,0.608,0.676,0.9,0.681l0.229,0.011c0.515,0.07,0.852,0.182,1.04,0.54
			c0.187,0.39,0.183,1.128,0.181,1.613v6.221c0.002,1.034,0.005,2.009-0.666,2.842c-0.766,1-2.097,1.207-3.082,1.207
			c-0.711,0-2.436-0.167-3.042-1.72c-0.311-0.729-0.309-2.46-0.307-3.39v-5.284L39.17,72.16c-0.007-1.29-0.008-1.523,1.252-1.727
			c0.002,0,0.035-0.008,0.035-0.008c0.269-0.042,0.831-0.136,0.831-0.706c0-0.462-0.281-0.694-0.835-0.694l-3.324,0.091l-3.58-0.091
			c-0.203,0-0.458,0.021-0.632,0.196c-0.119,0.117-0.179,0.286-0.179,0.498c0,0.57,0.585,0.658,0.866,0.698l0.088,0.016
			c1.152,0.196,1.149,0.512,1.139,1.69l-0.002,0.339v6.347c0,1.634,0.157,3.326,2.027,4.472c1.554,0.939,3.664,1.08,4.783,1.08
			c2.043,0,3.609-0.458,4.785-1.403c1.468-1.196,1.468-2.684,1.467-4.258v-6.123c0-0.537,0.035-1.238,0.131-1.58
			c0.137-0.433,0.338-0.496,0.833-0.563c0.002,0,0.185-0.016,0.185-0.016c0.04-0.004,0.083-0.006,0.131-0.011
			c0.086,0.019,0.165,0.024,0.215,0.028c-0.013-0.002,0.038,0.005,0.038,0.005c0.378,0.045,0.569,0.074,0.74,0.278
			c0.26,0.33,0.586,1.099,0.68,1.328c0.001,0.003,4.885,11.281,4.885,11.281c-0.001-0.006,0.079,0.2,0.079,0.2
			c0.174,0.448,0.325,0.833,1.083,0.833c0.628,0,0.806-0.357,0.96-0.794c-0.005,0.013,4.808-11.355,4.808-11.355
			c-0.002,0.006,0.178-0.41,0.178-0.41c0.33-0.787,0.567-1.275,1.25-1.368c0.002,0,0.199-0.016,0.199-0.016
			c0.143-0.011,0.336-0.022,0.511-0.079c0.122,0.039,0.264,0.068,0.425,0.095c1.21,0.188,1.208,0.654,1.206,1.896l-0.001,8.547
			c0.002,1.302,0.003,1.537-1.32,1.752c-0.536,0.087-0.841,0.383-0.841,0.807c0,0.443,0.273,0.672,0.811,0.672l6.696-0.094
			l5.161,0.094c0.569,0,0.607-0.439,0.625-0.65c-0.002,0.012,0.253-1.839,0.253-1.845c0.001,0,0.035-0.167,0.035-0.167
			c0.085-0.394,0.153-0.736,0.153-0.916C77.998,80.006,77.741,79.74,77.233,79.74z"/>
		<path fill="#006BB6" d="M104.263,79.787c-0.002,0-0.002,0-0.005,0c-0.004,0-0.005,0-0.007,0c-0.458,0-0.723,0.415-1.031,0.895
			c-0.523,0.82-1.242,1.939-3.312,1.943c-1.369-0.004-1.601-0.584-1.601-1.886v-8.276c0.003-0.025-0.011-0.542-0.009-0.805
			c0.018-0.854,0.175-1.049,1.25-1.225c0.001,0,0.035-0.008,0.035-0.008c0.271-0.042,0.828-0.136,0.828-0.706
			c0-0.462-0.278-0.694-0.831-0.694c-0.555,0-0.927,0.032-1.283,0.067c-0.367,0.032-0.714,0.065-1.263,0.065l-0.686,0.025
			c-0.538-0.035-0.694-0.035-1.071-0.083c0,0-0.015,0.016-0.038,0.037l-2.554-0.112c-0.203,0-0.458,0.021-0.633,0.196
			c-0.118,0.117-0.18,0.286-0.18,0.498c0,0.57,0.586,0.658,0.869,0.698l0.087,0.016c1.152,0.196,1.149,0.512,1.141,1.69
			l-0.002,0.319c-0.004,0.079-0.009,0.152-0.011,0.233l-0.001,8.253c0.003,1.318,0.003,1.488-1.253,1.699
			c-0.517,0.086-0.839,0.403-0.839,0.832c0,0.646,0.589,0.646,0.811,0.646h0.003c0.003,0,0.005,0,0.008,0l5.482-0.094l5.294,0.094
			l0.264,0.01c0.06,0.005,0.113,0.007,0.168,0.007c0.373,0.001,0.646-0.104,0.694-0.74c0.028-0.392,0.103-0.802,0.173-1.198
			c0.099-0.529,0.198-1.077,0.198-1.609C104.958,80.382,104.958,79.787,104.263,79.787z"/>
		<path fill="#006BB6" d="M90.821,79.787c-0.002,0-0.003,0-0.003,0c-0.002,0-0.005,0-0.007,0c-0.458,0-0.725,0.415-1.032,0.895
			c-0.526,0.82-1.243,1.939-3.312,1.943c-1.37-0.004-1.6-0.584-1.6-1.886v-8.276c0-0.025-0.012-0.542-0.011-0.805
			c0.019-0.854,0.177-1.049,1.251-1.225c0.002,0,0.035-0.008,0.035-0.008c0.269-0.042,0.829-0.136,0.829-0.706
			c0-0.462-0.281-0.694-0.834-0.694c-0.556,0-0.923,0.032-1.282,0.067c-0.367,0.032-0.714,0.065-1.265,0.065l-0.684,0.025
			c-0.538-0.035-0.694-0.035-1.071-0.083c0,0-0.016,0.016-0.04,0.037l-2.552-0.112c-0.205,0-0.458,0.021-0.633,0.196
			c-0.119,0.117-0.18,0.286-0.18,0.498c0,0.57,0.587,0.658,0.867,0.698l0.088,0.016c1.151,0.196,1.149,0.512,1.139,1.69
			l-0.001,0.319c-0.003,0.079-0.009,0.152-0.011,0.233v8.253c0.002,1.318,0.002,1.488-1.253,1.699
			c-0.52,0.086-0.841,0.403-0.841,0.832c0,0.646,0.591,0.646,0.813,0.646h0.001c0.003,0,0.006,0,0.01,0l5.48-0.094l5.295,0.094
			l0.263,0.01c0.058,0.005,0.115,0.007,0.169,0.007c0.371,0.001,0.648-0.104,0.691-0.74c0.03-0.392,0.105-0.802,0.177-1.198
			c0.097-0.529,0.196-1.077,0.196-1.609C91.516,80.382,91.516,79.787,90.821,79.787z"/>
		<path fill="#006BB6" d="M118.044,79.74c-0.61,0-0.899,0.68-1.024,0.969c-0.823,1.62-2.365,1.962-3.512,1.962
			c-0.714,0-1.311-0.215-1.589-0.575c-0.342-0.45-0.342-1.377-0.342-1.775v-2.823c-0.002-0.557-0.002-0.615,0.481-0.643
			c-0.003,0,0.999-0.047,0.999-0.047c1.286,0,1.529,0.646,1.77,1.275c0.17,0.448,0.359,0.957,0.983,0.957
			c0.467,0,0.742-0.339,0.742-0.905c-0.049-0.674-0.094-1.363-0.094-1.999c0.001-0.001,0.094-1.985,0.094-1.987
			c0-0.317-0.071-0.536-0.221-0.683c-0.123-0.123-0.293-0.188-0.495-0.188c-0.626,0-0.836,0.688-0.919,0.942
			c-0.205,0.674-0.471,0.982-0.918,1.062c-0.422,0.09-1.462,0.09-1.907,0.09c-0.219,0-0.365-0.036-0.429-0.094
			c-0.087-0.092-0.087-0.347-0.085-0.637v-3.034c-0.002-0.586,0.067-0.75,0.128-0.785c0.092-0.055,0.452-0.175,1.897-0.175
			c0.644,0,1.258,0.029,1.666,0.399c0.439,0.385,0.792,0.784,1.028,1.154l0.03,0.054c0.172,0.276,0.438,0.691,0.903,0.691
			c0.239,0,0.418-0.062,0.542-0.187c0.187-0.192,0.18-0.453,0.179-0.683l-0.001-0.104v-1.881l0.002-0.19
			c0.012-0.254,0.023-0.513-0.158-0.699c-0.113-0.122-0.274-0.178-0.496-0.178l-3.656,0.046l-3.623,0.045l-4.137-0.091
			c-0.24,0-0.441,0.075-0.591,0.22c-0.144,0.146-0.22,0.348-0.22,0.591c0,0.298,0.321,0.501,0.959,0.598
			c1.208,0.188,1.208,0.654,1.204,1.896v8.547c0,1.302,0,1.537-1.326,1.752c-0.533,0.087-0.837,0.383-0.837,0.807
			c0,0.443,0.273,0.672,0.811,0.672l6.696-0.094l5.162,0.094c0.568,0,0.605-0.439,0.621-0.65c0,0.014,0.256-1.839,0.259-1.845
			l0.033-0.168c0.083-0.395,0.156-0.735,0.156-0.915C118.81,80.006,118.553,79.74,118.044,79.74z"/>
		<path fill="#006BB6" d="M138.884,79.74c-0.61,0-0.901,0.68-1.026,0.969c-0.822,1.62-2.363,1.962-3.509,1.962
			c-0.718,0-1.312-0.215-1.59-0.575c-0.342-0.45-0.342-1.377-0.342-1.775v-2.823c-0.001-0.557-0.001-0.615,0.481-0.643
			c0,0,0.999-0.047,0.999-0.047c1.284,0,1.531,0.646,1.77,1.275c0.169,0.448,0.36,0.957,0.985,0.957c0.462,0,0.74-0.339,0.74-0.905
			c-0.047-0.674-0.093-1.363-0.093-1.999c0-0.001,0.093-1.985,0.093-1.987c0-0.317-0.072-0.536-0.215-0.683
			c-0.126-0.123-0.295-0.188-0.501-0.188c-0.628,0-0.837,0.688-0.916,0.942c-0.21,0.674-0.475,0.982-0.918,1.062
			c-0.425,0.09-1.467,0.09-1.91,0.09c-0.218,0-0.366-0.036-0.427-0.094c-0.087-0.092-0.087-0.347-0.086-0.637v-3.034
			c-0.001-0.586,0.068-0.75,0.131-0.785c0.09-0.055,0.446-0.175,1.894-0.175c0.646,0,1.261,0.029,1.668,0.399
			c0.433,0.385,0.789,0.784,1.025,1.154l0.029,0.054c0.175,0.276,0.438,0.691,0.902,0.691c0.243,0,0.422-0.062,0.542-0.187
			c0.189-0.192,0.184-0.453,0.18-0.683l-0.003-0.104v-1.881l0.006-0.19c0.014-0.254,0.024-0.513-0.156-0.699
			c-0.113-0.122-0.276-0.178-0.497-0.178l-3.656,0.046l-3.621,0.045l-4.137-0.091c-0.244,0-0.446,0.075-0.593,0.22
			c-0.146,0.146-0.222,0.348-0.222,0.591c0,0.298,0.325,0.501,0.962,0.598c1.206,0.188,1.206,0.654,1.203,1.896v8.547
			c0,1.302,0.003,1.537-1.322,1.752c-0.534,0.087-0.842,0.383-0.842,0.807c0,0.443,0.276,0.672,0.815,0.672l6.694-0.094l5.159,0.094
			c0.573,0,0.61-0.439,0.626-0.65c0,0.014,0.253-1.839,0.254-1.845l0.036-0.168c0.083-0.395,0.155-0.735,0.155-0.915
			C139.649,80.006,139.389,79.74,138.884,79.74z"/>
		<path fill="#006BB6" d="M125.294,75.642h-0.031h-4.093l-0.195-0.003c-0.379-0.016-0.623,0.014-0.831,0.51
			c-0.002,0.001-0.256,0.629-0.256,0.629c0-0.006-0.047,0.103-0.047,0.103c-0.138,0.301-0.253,0.567-0.253,0.761l0.127,0.288
			c0.186,0.173,0.508,0.148,0.723,0.132l0.078-0.006h3.706l0.444-0.021c0.133,0.002,0.372,0.002,0.539-0.168l0.009-0.008
			l0.012-0.016c0.082-0.101,0.169-0.333,0.328-0.783l0.058-0.161c0.005-0.014,0.038-0.106,0.038-0.106
			c0.202-0.547,0.235-0.672,0.235-0.757l-0.109-0.263C125.638,75.638,125.431,75.639,125.294,75.642z"/>
		<path fill="#006BB6" d="M132.484,67.88c0.201,0,0.392-0.044,0.577-0.086l0.17-0.037c0.003,0,3.166-0.697,3.166-0.697
			c0.003-0.002,0.133-0.031,0.133-0.031c0.803-0.185,2.018-0.466,2.018-1.659c0-0.792-0.626-1.368-1.484-1.368
			c-0.573,0-1.337,0.394-2.01,0.777l-2.629,1.513c-0.008,0.005-0.106,0.065-0.106,0.065c-0.253,0.153-0.603,0.361-0.603,0.827
			C131.716,67.6,132.024,67.88,132.484,67.88z"/>
		<path fill="#006BB6" d="M153.484,79.439c-0.524,0-0.74,0.479-0.814,0.638c-0.361,0.686-0.783,1.479-1.464,2.048
			c-0.672,0.539-1.46,0.824-2.279,0.824c-1.473,0-2.835-0.804-3.74-2.209c-0.713-1.12-1.119-2.697-1.119-4.325
			c0-1.67,0.445-3.261,1.229-4.365c0.89-1.239,2.25-1.985,3.63-1.985c1.85,0,2.538,1.001,3.093,1.807
			c0.354,0.516,0.657,0.961,1.185,0.961c0.411,0,0.696-0.268,0.696-0.648c0-0.239-0.039-0.446-0.088-0.666l-0.011-0.06
			c0-0.001-0.182-1.174-0.182-1.174c-0.001-0.006-0.011-0.057-0.011-0.057c-0.118-0.663-0.187-0.863-0.914-1.078
			c-1.09-0.308-2.451-0.497-3.557-0.497c-2.471,0-4.971,0.746-6.685,2c-1.973,1.473-3.103,3.65-3.103,5.972
			c0,2.268,1.17,4.555,3.053,5.969c1.502,1.128,3.782,1.769,6.267,1.769c1.263,0,3.09-0.188,4.599-1.104
			c0.793-0.463,0.818-0.879,0.854-1.566c0,0,0.007-0.121,0.007-0.122c0-0.003,0.073-0.976,0.073-0.976
			c0.004-0.073,0.009-0.16,0.009-0.252c0-0.232-0.037-0.508-0.212-0.696C153.91,79.551,153.75,79.439,153.484,79.439z"/>
		<path fill="#006BB6" d="M163.039,68.652c-2.345,0-4.336,0.789-5.92,2.352c-1.539,1.49-2.428,3.522-2.428,5.574
			c0,2.283,1.057,4.527,2.755,5.848c1.468,1.159,3.886,1.936,6.013,1.936c4.73,0,8.436-3.459,8.436-7.877
			C171.894,71.396,167.333,68.652,163.039,68.652z M162.899,69.974c3.394,0,4.493,4.792,4.493,7.115
			c0,2.051-0.763,5.932-3.653,5.932c-1.823,0-2.96-1.648-3.475-2.631c-0.665-1.31-1.015-2.869-1.015-4.509
			C159.25,73.836,160.011,69.974,162.899,69.974z"/>
		<path fill="#006BB6" d="M179.459,74.129c0.004,0-1.182-0.395-1.182-0.395c-1.213-0.397-1.966-0.833-1.966-1.784
			c0-1.136,1.231-1.838,2.374-1.838c1.128,0,1.88,0.729,2.435,2.361c0.065,0.213,0.248,0.801,0.867,0.801
			c0.207,0,0.375-0.064,0.498-0.188c0.226-0.229,0.224-0.579,0.222-0.865v-0.084v-1.581V70.4c0.009-0.393,0.018-0.839-0.508-1.114
			c-0.792-0.408-2.356-0.634-3.144-0.634c-3.024,0-6.297,1.892-6.297,4.95c0,2.597,2.66,3.708,4.249,4.371
			c0.002,0,0.476,0.185,0.476,0.185c1.329,0.514,2.829,1.092,2.829,2.602c0,1.623-1.739,2.214-2.906,2.214
			c-0.655,0-1.585-0.133-2.24-0.768c-0.494-0.488-0.648-1.043-0.842-1.74l-0.06-0.221c-0.113-0.422-0.31-1.132-0.996-1.132
			c-0.18,0-0.342,0.064-0.458,0.188c-0.284,0.29-0.271,0.829-0.262,1.185v0.138v1.279v0.176c-0.005,0.65-0.009,1.08,0.817,1.49
			c1.017,0.496,2.854,0.793,4.04,0.793c1.779,0,3.272-0.487,4.442-1.45c1.238-1.056,1.951-2.481,1.951-3.917
			C183.8,75.91,181.48,74.773,179.459,74.129z"/>
		<path fill="#006BB6" d="M191.549,74.129c0.005,0-1.184-0.395-1.184-0.395c-1.214-0.397-1.964-0.833-1.964-1.784
			c0-1.136,1.235-1.838,2.376-1.838c1.126,0,1.88,0.729,2.431,2.361c0.068,0.213,0.248,0.801,0.87,0.801
			c0.204,0,0.373-0.064,0.495-0.188c0.229-0.229,0.226-0.583,0.223-0.865v-0.084v-1.581V70.4c0.01-0.393,0.019-0.839-0.507-1.114
			c-0.794-0.408-2.36-0.634-3.143-0.634c-3.027,0-6.299,1.892-6.299,4.95c0,2.597,2.661,3.709,4.25,4.371
			c0.003,0,0.478,0.185,0.478,0.185c1.327,0.514,2.829,1.092,2.829,2.602c0,1.623-1.738,2.214-2.909,2.214
			c-0.659,0-1.583-0.133-2.241-0.768c-0.489-0.488-0.642-1.041-0.842-1.74l-0.062-0.221c-0.111-0.422-0.304-1.132-0.993-1.132
			c-0.184,0-0.341,0.064-0.46,0.188c-0.283,0.29-0.271,0.829-0.261,1.185l0.004,0.138v1.279l-0.001,0.176
			c-0.007,0.65-0.007,1.08,0.816,1.49c1.016,0.496,2.854,0.793,4.039,0.793c1.782,0,3.275-0.487,4.443-1.45
			c1.243-1.056,1.95-2.481,1.95-3.917C195.889,75.91,193.57,74.773,191.549,74.129z"/>
		<path fill="#006BB6" d="M209.236,79.74c-0.607,0-0.896,0.68-1.021,0.969c-0.826,1.62-2.365,1.962-3.51,1.962
			c-0.72,0-1.313-0.215-1.591-0.575c-0.345-0.45-0.345-1.377-0.345-1.775v-2.823c-0.004-0.557-0.004-0.615,0.485-0.643
			c-0.003,0,0.997-0.047,0.997-0.047c1.283,0,1.531,0.646,1.769,1.275c0.166,0.448,0.362,0.957,0.985,0.957
			c0.467,0,0.74-0.339,0.74-0.905c-0.046-0.669-0.092-1.362-0.092-1.999c0.002-0.001,0.092-1.982,0.092-1.982
			c0-0.793-0.504-0.876-0.717-0.876c-0.627,0-0.839,0.688-0.92,0.942c-0.205,0.674-0.472,0.982-0.915,1.062
			c-0.424,0.09-1.466,0.09-1.909,0.09c-0.22,0-0.369-0.036-0.429-0.094c-0.091-0.092-0.087-0.347-0.087-0.637v-3.034
			c-0.004-0.586,0.069-0.75,0.133-0.785c0.086-0.055,0.448-0.175,1.893-0.175c0.646,0,1.26,0.029,1.669,0.399
			c0.436,0.385,0.788,0.784,1.024,1.154c0,0.002,0.034,0.056,0.034,0.056c0.171,0.274,0.437,0.689,0.899,0.689
			c0.24,0,0.418-0.062,0.544-0.187c0.188-0.192,0.18-0.453,0.18-0.683l-0.005-0.104v-1.881l0.005-0.19
			c0.016-0.254,0.024-0.513-0.157-0.699c-0.113-0.122-0.278-0.178-0.496-0.178l-3.655,0.046l-3.621,0.045l-4.141-0.091
			c-0.238,0-0.44,0.075-0.589,0.22c-0.144,0.146-0.221,0.348-0.221,0.591c0,0.298,0.32,0.501,0.958,0.598
			c1.208,0.188,1.206,0.654,1.204,1.896v8.547c0.002,1.302,0.002,1.537-1.32,1.752c-0.537,0.087-0.842,0.383-0.842,0.807
			c0,0.443,0.273,0.672,0.81,0.672l6.699-0.094l5.161,0.094c0.569,0,0.605-0.439,0.622-0.65c0,0.012,0.254-1.841,0.257-1.845
			l0.034-0.169C209.93,81.05,210,80.708,210,80.529C210,80.006,209.744,79.74,209.236,79.74z"/>
	</g>
	<rect y="61.01" fill="#006BB6" width="210.344" height="0.933"/>
</g>
<g id="_x33__colour_flat_logo_1_">
	<path fill="#076CB4" d="M142.742,31.519c-1.447-1.778-8.666-7.576-27.771-15.208c0,0,4.108-5.344,20.05-7.123
		c0,0,0.016-4.623-0.398-6.102c0,0-10.09-1.144-22.629,7.207c0,0,0.28,3.839,1.253,6.252c0,0,1.4,3.423-0.856,5.934
		c0,0,9.143,2.31,17.695,8.042c0,0,5.81,0.619,9.798,1.157C140.5,31.583,142.742,31.519,142.742,31.519"/>
	<path fill="#076CB4" d="M129.98,23.07l3.331,7.76c0,0,6.38,0.692,10.099,1.382C143.41,32.212,141.167,28.766,129.98,23.07"/>
	<path fill="#076CB4" d="M96.773,16.807c-9.324,4.599-15.749,14.191-15.749,14.191c0.682,1.807,1.042,3.396,1.042,3.396
		c0.425-0.221,7.957-2.272,7.957-2.272c4.679-7.798,12.565-10.463,12.565-10.463c-4.701-2.167-6.196-12.563-6.347-12.66
		C79.971-1.038,68.458,0.033,68.458,0.033c1.405,2.889,2.75,6.421,2.75,6.421C89.357,9.838,96.773,16.807,96.773,16.807"/>
	<path fill="#076CB4" d="M24.301,33.185c0-0.643-0.405-0.972-1.204-0.972l-1.466,0.034l-1.45,0.036l-2.948-0.07
		c-0.488,0-1.502,0-1.502,1.005c0,0.869,0.717,0.88,1.147,0.884l0.355,0.017c0.72,0.097,1.263,0.305,1.571,1.001
		c0.241,0.56,0.241,1.659,0.241,2.314v7.522c-0.884-1.132-8.984-11.505-8.984-11.505l-0.228-0.293
		c-0.648-0.852-0.762-0.945-2.043-0.945H1.96c-0.457,0-1.401,0-1.401,0.903c0,0.941,0.884,0.977,1.364,0.996l0.186,0.007
		c1.196,0.076,1.275,0.964,1.266,2.416v0.282v10.656v0.476c0.009,1.096,0.02,2.597-0.283,3.475
		c-0.212,0.604-0.491,0.809-1.144,0.839c-0.004,0-0.196,0.009-0.196,0.009c-0.5,0.02-1.425,0.058-1.425,0.998
		c0,0.629,0.437,1.007,1.169,1.007l3.147-0.141l3.114,0.141c0.798,0,1.271-0.378,1.271-1.007c0-0.934-0.986-0.977-1.462-0.998
		l-0.181-0.009C6.502,52.193,5.974,52,5.702,51.157c-0.218-0.676-0.218-2.469-0.218-3.238V37.426
		c0.909,1.175,12.595,16.258,12.595,16.258l0.142,0.193c0.429,0.588,0.915,1.252,1.793,1.252c0.467,0,0.78-0.1,0.979-0.308
		c0.231-0.245,0.267-0.576,0.267-0.959c0-0.089,0-0.18-0.004-0.275l-0.003-0.317V37.021l-0.002-0.415
		c-0.003-0.123-0.006-0.242-0.006-0.358c0-1.239,0.14-1.999,1.126-2.128l0.408-0.013c0.465,0,0.99,0,1.297-0.32
		C24.226,33.634,24.301,33.432,24.301,33.185"/>
	<path fill="#076CB4" d="M36.449,52.846c-2.639,0-4.28-2.458-5.022-3.927c-0.955-1.94-1.46-4.255-1.46-6.687
		c0-3.043,1.107-8.797,5.29-8.797c4.899,0,6.483,7.126,6.483,10.578C41.739,47.066,40.633,52.846,36.449,52.846 M35.456,31.665
		c-3.321,0-6.137,1.158-8.376,3.442c-2.18,2.183-3.43,5.155-3.43,8.154c0,3.344,1.488,6.62,3.883,8.556
		c2.081,1.696,5.506,2.834,8.519,2.834c6.695,0,11.939-5.062,11.939-11.528C47.99,35.68,41.529,31.665,35.456,31.665"/>
	<path fill="#076CB4" d="M65.952,36.187c0.417-1.026,0.777-1.917,1.848-2.067c0.002,0,0.29-0.027,0.29-0.027
		c0.446-0.029,1.276-0.081,1.276-0.875c0-0.302-0.12-1.004-1.204-1.004l-2.817,0.07l-2.85-0.07c-0.363,0-1.335,0-1.335,0.939
		c0,0.93,0.84,0.94,1.339,0.951l0.361,0.017c0.369,0.039,0.982,0.209,0.982,0.916c0,0.492-0.31,1.394-0.606,2.077
		c0,0-3.217,8.093-3.658,9.205c-0.455-1.126-4.225-10.435-4.225-10.435c-0.146-0.36-0.368-0.905-0.368-1.226
		c0-0.318,0.316-0.517,0.544-0.538c0.006,0,0.417-0.017,0.417-0.017c0.583,0,1.556-0.003,1.556-0.986
		c0-0.235-0.078-0.439-0.222-0.589c-0.32-0.326-0.864-0.321-1.262-0.314h-0.115l-3.845,0.137l-4.703-0.137h-0.157
		c-0.383-0.009-0.861-0.023-1.157,0.277c-0.144,0.149-0.222,0.349-0.222,0.591c0,0.962,0.765,1.018,1.054,1.038
		c-0.015,0,0.058,0.008,0.058,0.008c0.501,0.062,0.83,0.102,1.109,0.44c0.375,0.499,0.846,1.644,0.981,1.983
		c0.001,0.004,6.961,16.625,6.961,16.625c-0.003-0.002,0.112,0.301,0.112,0.301c0.248,0.658,0.442,1.175,1.464,1.175
		c0.839,0,1.072-0.482,1.288-1.116c-0.008,0.016,6.85-16.742,6.85-16.742C65.694,36.8,65.952,36.187,65.952,36.187"/>
	<path fill="#076CB4" d="M69.47,45.646h0.017H69.47z"/>
	<path fill="#076CB4" d="M69.486,45.646c-0.008,0.003-0.013,0.003-0.015,0.004c-0.002-0.001-0.002-0.001-0.003-0.004h-0.023h0.023
		c0,0,0-0.001-0.002-0.004c-0.002-0.002,0.381-0.908,0.381-0.908c0.08-0.127,0.177-0.404,0.242-0.589l0.14-0.352
		c-0.005,0.013,1.349-3.484,1.921-4.963c0.394,1.062,1.928,4.982,1.928,4.982c-0.005-0.014,0.162,0.373,0.162,0.373
		s0.536,1.385,0.564,1.459c-0.021,0.013,0.017,0.013,0.08,0.008v0.021L69.486,45.646z M84.979,52.271l-0.216-0.009
		c-0.56-0.029-0.784-0.166-1.152-0.702c-0.305-0.46-0.658-1.336-0.795-1.688c-0.003-0.006-6.828-16.664-6.828-16.664l-0.149-0.382
		c-0.291-0.76-0.493-1.159-1.564-1.159c-1.335,0-1.577,0.629-1.911,1.503l-0.163,0.417l-3.845,9.395l-1.822,4.725l-0.335,0.915
		c-0.327,0.906-0.736,2.035-1.043,2.621c-0.437,0.813-0.659,0.854-1.593,1.02c-0.444,0.071-1.158,0.186-1.158,1.005
		c0,0.459,0.229,1.006,1.303,1.006l3.116-0.071l3.114,0.071c1.191,0,1.37-0.63,1.37-1.006c0-0.934-0.887-1.061-1.603-1.159
		c-1.044-0.146-1.878-0.267-1.787-1.293c0.04-0.457,0.258-1.079,0.362-1.404l0.1-0.299l0.062-0.177
		c0.238-0.657,0.361-1.122,1.302-1.117h4.716c1.272-0.047,1.31,0.584,1.575,1.331l0.071,0.202c0.003,0.003,0.5,1.278,0.5,1.278
		c0.125,0.322,0.311,0.808,0.311,1.196c0,0.314-0.234,0.392-0.936,0.465c-0.584,0.061-1.382,0.143-1.382,0.977
		c0,0.665,0.449,1.006,1.334,1.006l4.838-0.139l4.042,0.139c0.347,0,1.401,0,1.401-1.006C86.213,52.308,85.442,52.284,84.979,52.271
		"/>
	<polygon fill="#076CB4" points="193.549,45.646 193.534,45.646 193.552,45.646 	"/>
	<path fill="#076CB4" d="M193.549,45.646c-0.007,0.003-0.009,0.003-0.016,0.004v-0.004h-0.024h0.024
		c-0.002,0-0.002-0.001-0.002-0.004c0-0.002,0.38-0.908,0.38-0.908c0.08-0.127,0.175-0.404,0.244-0.589l0.141-0.352
		c-0.01,0.013,1.345-3.484,1.921-4.963c0.394,1.062,1.926,4.982,1.926,4.982c-0.005-0.014,0.161,0.373,0.161,0.373
		s0.537,1.385,0.566,1.459c-0.024,0.013,0.017,0.013,0.08,0.008v0.021L193.549,45.646z M209.042,52.271l-0.217-0.009
		c-0.56-0.029-0.783-0.166-1.146-0.702c-0.31-0.46-0.663-1.336-0.797-1.688c-0.007-0.006-6.828-16.664-6.828-16.664l-0.154-0.382
		c-0.287-0.76-0.489-1.159-1.562-1.159c-1.336,0-1.58,0.629-1.914,1.503l-0.159,0.417l-3.846,9.395l-1.826,4.725l-0.332,0.915
		c-0.328,0.906-0.735,2.035-1.045,2.621c-0.438,0.813-0.578,0.887-1.514,1.053c-0.08,0.015-0.253,0-0.341,0.019
		c-0.096-0.021-0.189-0.039-0.269-0.052c-1.728-0.283-1.726-0.812-1.724-2.561v-0.341v-12.17V36.75
		c-0.009-1.922-0.009-2.323,1.864-2.636c0.428-0.074,1.156-0.197,1.156-0.965c0-0.624-0.371-0.938-1.104-0.938l-2.355,0.068
		l-2.383,0.069l-5.101-0.137c-0.267,0-1.072,0-1.072,0.938c0,0.769,0.753,0.886,1.161,0.947l0.127,0.019
		c1.709,0.306,1.707,0.833,1.693,2.581l-0.003,0.496v12.447c0.005,1.998,0.005,2.305-1.856,2.624
		c-0.931,0.161-1.122,0.674-1.122,1.073c0,0.424,0.182,0.938,1.072,0.938l4.765-0.139l5.104,0.139V54.27
		c0.134,0.01,0.28,0.011,0.457,0.004l3.111-0.071L194,54.273c1.192,0,1.372-0.63,1.372-1.006c0-0.934-0.893-1.061-1.603-1.159
		c-1.047-0.146-1.882-0.267-1.79-1.293c0.04-0.457,0.259-1.079,0.366-1.404l0.098-0.299l0.062-0.177
		c0.236-0.657,0.361-1.122,1.3-1.117h4.722c1.271-0.047,1.305,0.584,1.57,1.331l0.073,0.202c0.003,0.003,0.499,1.278,0.499,1.278
		c0.123,0.322,0.31,0.809,0.31,1.196c0,0.314-0.237,0.392-0.936,0.465c-0.583,0.061-1.382,0.143-1.382,0.977
		c0,0.665,0.445,1.006,1.336,1.006l4.836-0.139l4.042,0.139c0.351,0,1.402,0,1.402-1.006
		C210.278,52.308,209.507,52.284,209.042,52.271"/>
	<path fill="#076CB4" d="M101.593,39.732c0.003,0-1.687-0.581-1.687-0.581c-1.385-0.465-2.863-1.098-2.863-2.712
		c0-1.726,1.806-2.798,3.472-2.798c1.651,0,2.746,1.093,3.549,3.541c0.096,0.33,0.331,1.12,1.157,1.12
		c0.271,0,0.485-0.083,0.647-0.248c0.297-0.313,0.292-0.813,0.292-1.214v-2.456v-0.23c0.013-0.553,0.023-1.182-0.681-1.564
		c-1.115-0.596-3.329-0.922-4.435-0.922c-4.275,0-8.891,2.754-8.891,7.206c0,3.771,3.756,5.396,6.001,6.363
		c0.006,0.003,0.68,0.273,0.68,0.273c1.915,0.767,4.087,1.63,4.087,3.918c0,2.455-2.531,3.35-4.229,3.35
		c-0.958,0-2.297-0.203-3.254-1.156c-0.716-0.74-0.938-1.563-1.222-2.61l-0.086-0.318c-0.159-0.601-0.42-1.606-1.335-1.606
		c-0.238,0-0.44,0.09-0.593,0.253c-0.376,0.397-0.359,1.167-0.35,1.679l0.006,0.207v1.883l-0.001,0.266
		c-0.01,0.956-0.012,1.534,1.113,2.116c1.442,0.728,4.042,1.162,5.723,1.162c2.517,0,4.628-0.715,6.271-2.121
		c1.75-1.542,2.753-3.619,2.753-5.707C107.717,42.333,104.442,40.675,101.593,39.732"/>
	<path fill="#076CB4" d="M128.914,47.567c-0.616,0-0.91,0.509-1.078,0.885c-0.526,1.028-1.126,2.206-2.111,3.055
		c-0.978,0.808-2.119,1.233-3.303,1.233c-2.127,0-4.097-1.199-5.399-3.294c-1.025-1.667-1.613-4.008-1.613-6.426
		c0-2.477,0.644-4.842,1.771-6.485c1.284-1.852,3.245-2.961,5.241-2.961c2.68,0,3.674,1.498,4.473,2.701
		c0.493,0.74,0.919,1.376,1.623,1.376c0.541,0,0.908-0.346,0.908-0.865l-0.123-0.967l-0.017-0.086c0,0.013-0.262-1.735-0.262-1.735
		c-0.004-0.007-0.015-0.082-0.015-0.082c-0.167-0.971-0.244-1.214-1.239-1.518c-1.548-0.453-3.48-0.733-5.053-0.733
		c-3.499,0-7.04,1.097-9.466,2.936c-2.79,2.153-4.391,5.333-4.391,8.729c0,3.317,1.656,6.663,4.32,8.728
		c2.125,1.648,5.354,2.594,8.88,2.594c1.793,0,4.371-0.283,6.504-1.617c1.092-0.655,1.122-1.221,1.183-2.242
		c0,0,0.008-0.174,0.008-0.179c0-0.002,0.1-1.437,0.1-1.437c0.008-0.104,0.015-0.233,0.015-0.367c0-0.33-0.046-0.71-0.28-0.969
		C129.426,47.66,129.197,47.567,128.914,47.567"/>
	<path fill="#076CB4" d="M174.958,33.147l-0.362,3.695c-0.047,0.534-0.13,1.428-0.979,1.428c-0.397,0-0.938-0.211-1.279-1.205
		c-0.919-2.354-1.235-2.911-3.889-2.911c-0.617,0-0.617,0-0.617,0.711v14.498l-0.005,0.34c-0.009,1.751-0.009,2.279,1.723,2.564
		c0.422,0.067,1.295,0.206,1.295,1.069c0,0.283-0.104,0.938-1.066,0.938l-5.106-0.137l-4.771,0.137
		c-0.885,0-1.076-0.511-1.076-0.938c0-0.395,0.197-0.909,1.13-1.069c1.776-0.304,1.855-0.603,1.855-2.368V34.906l-0.004-0.098
		c-0.01-0.255-0.017-0.52-0.056-0.573c-0.058-0.043-0.391-0.043-0.594-0.043c-2.056,0-2.904,0.781-4.143,2.644
		c-0.563,0.884-1.102,1.331-1.587,1.331c-0.536,0-0.871-0.4-0.871-1.041l0.134-0.688c0,0,0.041-0.143,0.041-0.138l0.856-3.43
		c0,0,0.235-0.743,1.142-0.732c2.049-0.085,4.686,0.362,17.331,0.052C174.063,32.189,175.076,32.189,174.958,33.147"/>
	<path fill="#076CB4" d="M142.864,52.609c-2.637,0-4.278-2.461-5.023-3.931c-0.951-1.942-1.46-4.254-1.46-6.686
		c0-3.042,1.108-8.796,5.291-8.796c4.9,0,6.485,7.127,6.485,10.58C148.157,46.83,147.05,52.609,142.864,52.609 M138.908,31.776
		c-2.065,0.497-3.878,1.523-5.417,3.091c-2.176,2.182-3.428,5.154-3.428,8.151c0,3.345,1.489,6.623,3.884,8.556
		c2.083,1.695,5.502,2.838,8.521,2.838c6.694,0,11.935-5.067,11.935-11.526c0-7.185-6.007-11.173-11.895-11.444
		C139.908,31.449,138.908,31.776,138.908,31.776"/>
	<path id="SVGID_2_" fill="#F6CE64" d="M96.2,8.499c0.782,4.462,2.216,8.079,2.216,8.079c2.125,5.19,7.033,6.852,7.033,6.852
		c2.663,1.153,3.145,1.716,3.145,1.716c7.507-2.771,4.413-9.288,4.413-9.288c-0.961-3.005-0.948-5.266-0.956-5.995
		c0,0,0.031-0.448-0.228-0.413c-0.382,0.06-0.753,0.125-0.753,0.125c-0.403,0.073-0.687,0.07-0.784,0.073
		c-1.526,0.05-3.095-0.401-3.095-0.401c-3.212-0.96-5.18-1.194-5.18-1.194c-0.643-0.08-1.254-0.112-1.824-0.112
		C97.821,7.941,96.2,8.499,96.2,8.499"/>
	<path fill="#EB2030" d="M105.903,20.683c0,0-1.126-1.302,0.636-0.886c0,0,0.176,0.015,0.168-0.001
		c0.152,0.027,0.312,0.021,0.33,0.175c0.163,0.368,0.306,0.606,0.648,0.746c0,0,0.327,0.162,1.062,0.135
		c0,0-0.106,0.457-0.538,0.787c0,0-0.353,0.124-0.316,0.795c0,0-0.271,0.092-0.726-0.168c0,0-0.528-0.17-0.531,0.275
		c0,0,0.445-0.141,0.604,0.058c0,0-0.578,0.167-0.318,0.722c0,0,0.45,0.171,0.941-0.523c0,0,0.102,0.054,0.107,0.139
		c0,0-0.617,0.135,0.411,0.891c0,0-0.205-0.78,0.142-0.807c0,0,0.403,0.113,0.511,0.557c0,0,0.108-0.525,0.282-0.582
		c0,0-0.718-0.671,0.096-0.558c0,0,0.136-0.08-0.167-0.305c0,0,0.328-0.166,0.527,0.002c0,0-0.108-0.141-0.039-0.25h0.498
		c0,0-0.711-0.278,0.266-0.694c0,0-0.437-0.222,0-0.307c0,0,0.195,0,0.136-0.527c0,0-1.414,0.83-1.698-0.864
		c0,0,0.873-0.315,1.191,0.529c0,0,0.169-0.137-0.04-0.641c0,0,0.606-0.305,0.229-1.914c0,0-0.04-0.132,0.353-0.336
		c0,0,0.711-0.449-0.563-0.857c0,0,0.506,0.6-0.084,0.8c0,0-1.465-1.784-0.739-3.44c0,0,0.332-0.928,0.132-1.745
		c-0.167-0.69-1.147-1.643-2.251-0.998c0,0,0.89,0.228,0.827,0.978c-0.044,0.496-0.592,1.053-0.177,2.385
		c0.222,0.715,0.647,1.467,1.195,2.087c0,0,0.382,0.438,0.551,0.817c0,0-0.311-0.18-0.597-0.196c0,0-0.866-0.098,0.048,0.833
		c-0.098-0.106-0.51-0.612,0.729-0.285c0,0,0.761,1.43-0.095,1.647c0,0-0.56,0.055-0.974-0.475c0,0-0.801-0.975-1.07-1.34
		c0,0-1.099-0.953-1.126-2.371c0,0-0.039-0.528,0.349-0.651c0,0,0-0.001-0.003-0.002c0.013-0.029,0.013-0.049,0.013-0.049
		c-0.932-0.987-0.342-1.541-0.342-1.541c0.177,0.028,0.237-0.11,0.237-0.11s-0.542-0.584-0.562-0.697
		c-0.007-0.113,0.214-0.251,0.214-0.251l-0.316-0.334c-0.261-0.111-0.336-0.917-0.336-0.917l-0.259,0.052
		c-0.199-0.389-0.643-0.696-0.643-0.696c0.006,0.42-0.78,0.494-0.78,0.494c-0.395-0.207-0.872-0.023-0.872-0.023
		c-0.485-0.057,0.012,0.469,0.012,0.469c0.113,0.325,0.703,0.562,0.703,0.562l0.517,0.279c-0.043,0.111-0.337,0.055-0.337,0.055
		c-0.447-0.308-0.916-0.211-0.916-0.211c-0.396,0.193-0.467-0.222-0.467-0.222c-0.297,0.552,0.722,0.529,0.722,0.529
		c0.689,0.014,0.896,0.32,0.896,0.32c-0.6-0.057-0.582,0.22-0.582,0.22c-0.471-0.082-0.567,0.332-0.567,0.332
		c-0.278,0.106-0.133,0.565-0.133,0.565c0.62,0.725,0.052,0.554-0.493,0.395l-0.331-0.095c0.109-0.527-0.464-1.558-0.464-1.558
		c-0.801-1.2-0.461-1.476-0.461-1.476c0.505-0.581-0.12-0.778-0.12-0.778c0.186,0.281-0.047,0.401-0.047,0.401
		c-0.474-0.678-0.854-0.599-0.854-0.599c0.56,0.557,0.295,0.722,0.295,0.722c-0.736-0.722-1.112-0.393-1.112-0.393
		c0.389,0.089,0.385,0.448,0.385,0.448c0.13,0.281,0.377,0.197,0.377,0.197c0.418,0.307,0.01,0.333,0.01,0.333
		c-0.085-0.166-0.211-0.034-0.211-0.034c-0.191,0-0.357-0.021-0.357-0.021c0.101,0.539,0.914,0.5,0.947,0.471
		c0.656,1.031,0.171,1.365,0.171,1.365c0.534,1.002,0,0.971,0,0.971c0.311,0.031,0.462,0.283,0.462,0.283
		c0.092,0.333-0.369,0.276-0.369,0.276c0.296,0.279,0.916,0.31,0.916,0.31c0.342,0.271,0.505,0.355,0.565,0.404
		c0.209,0.125,0.562,0.232,0.935,0.208c0.022,0.065,0.004,0.048,0.055,0.134c0,0-1.024,0.753-2.109,0.719
		c0,0-0.138-0.137-0.339-0.389c0,0-0.377-0.277-0.469,0c0,0,0.449,0.165,0.411,0.425l-0.629-0.121c0,0,0.105,0.139,0.175,0.253
		c0,0,0.085,0.301,0.696,0.168c0,0,0.108,0.138,0.034,0.163c0,0-0.309,0.107-0.196,0.447c0,0,0.275,0.018,0.39-0.081
		c0,0,0.12-0.048,0.105-0.222h0.277c0,0,0.441-0.068,0.244,0.384c0,0,0.19,0.093,0.374-0.354c0,0,0.274-0.163,0.403,0.253
		c0,0,0.123-0.393,0.526-0.277c0,0,0.012,0.106-0.096,0.193c0,0,0.259,0.125,0.337-0.139c0,0,0.359-0.164,0.391,0.143
		c0,0,0.171-0.426,0.185-0.536c0,0,0.613,0.243,0.5,0.436c0,0,0.097,0.096,0.283,0.037c0,0,0.654,0.699,1.545,1.345
		c-0.436-0.009-0.73,0.016-0.814,0.041c-0.019-0.019-0.212-0.06-0.226-0.071c0,0-0.538-0.115-0.666,0.096
		c0,0-0.461,0.249-0.201,1.028c0,0-0.156,0.507-0.424,0.231c0,0-0.448-0.31-0.919-0.392c0,0-0.647-0.227-0.829-0.652
		c0,0-0.273-0.473-0.761,0.007c0,0,0.337,0.083,0.44,0.279c0,0,0.193,0.19,0.398,0.196c0,0,0.095,0.112,0.06,0.165
		c0,0-0.976-0.142-0.671,0.501c0,0,0.139-0.222,0.49,0.055c0,0,0.279,0.082,0.352-0.165c0,0,0.416,0.225-0.078,0.613
		c0,0,0.342,0.252,0.642-0.278c0,0,0.421,0.084,0.602,0.726c0,0,0.429-0.592,0.665,0.051c0,0,0.187-0.391,0.332,0.222
		c0,0,0.29,0.196,0.551,0.002C105.295,20.61,105.408,20.804,105.903,20.683"/>
</g>
</svg>
