<?xml version="1.0" encoding="utf-8"?>
<!-- Generator: Adobe Illustrator 17.1.0, SVG Export Plug-In . SVG Version: 6.00 Build 0)  -->
<!DOCTYPE svg PUBLIC "-//W3C//DTD SVG 1.1//EN" "http://www.w3.org/Graphics/SVG/1.1/DTD/svg11.dtd">
<svg version="1.1" id="Layer_1" xmlns="http://www.w3.org/2000/svg" xmlns:xlink="http://www.w3.org/1999/xlink" x="0px" y="0px"
	 viewBox="0 0 400 400" enable-background="new 0 0 400 400" xml:space="preserve">
<g>
	<path fill="#231F20" d="M207.4,21.2c0,0.2,0,0.3,0,0.4c0,4.7-3.6,10.2-10.2,10.2c-2,0-3.9-0.6-5.4-1.6c0.3,0,0.6,0.1,0.8,0.1
		c1.7,0,3.2-0.6,4.4-1.5c-1.6,0-2.9-1-3.3-2.5c0.2,0.1,0.4,0.1,0.7,0.1s0.7-0.1,0.9-0.2c-1.6-0.3-2.9-1.8-2.9-3.5v-0.1
		c0.4,0.3,1,0.4,1.6,0.4c-0.9-0.7-1.6-1.7-1.6-2.9c0-0.7,0.2-1.3,0.4-1.8c1.8,2.1,4.3,3.6,7.4,3.8c-0.1-0.3-0.1-0.5-0.1-0.8
		c0-1.9,1.6-3.6,3.6-3.6c1,0,1.9,0.4,2.6,1.1c0.8-0.2,1.6-0.4,2.3-0.8c-0.3,0.8-0.8,1.6-1.6,1.9c0.7-0.1,1.4-0.3,2.1-0.6
		C208.8,20,208.1,20.6,207.4,21.2"/>
</g>
<path fill="#231F20" d="M204,116.7h-2.4v8.7H198v-8.7h-1.7v-3.1h1.7v-1.9c0-1.4,0.7-3.7,3.7-3.7h2.7v2.9h-1.9
	c-0.3,0-0.8,0.2-0.8,0.8v1.8h2.8L204,116.7z"/>
<path fill="#231F20" d="M204,70.7c0-0.6-0.2-1.1-0.4-1.6c-0.6-1.1-1.8-1.9-3.2-1.9s-2.6,0.8-3.2,1.9c-0.3,0.4-0.4,1-0.4,1.6
	c0,1.9,1.6,3.6,3.6,3.6C202.4,74.3,204,72.7,204,70.7 M207.1,66.3v-1.4c0-0.5-0.4-0.9-0.9-0.9h-1.6c-0.4,0.2-0.6,0.4-0.6,0.8v1.4
	c0,0.5,0.4,0.9,0.9,0.9h1.3C206.7,67.2,207.1,66.8,207.1,66.3 M207.1,76.6v-7.4h-1.6c0.2,0.5,0.3,1,0.3,1.6c0,2.9-2.4,5.4-5.4,5.4
	s-5.4-2.4-5.4-5.4c0-0.6,0.1-1.1,0.3-1.6h-1.4v7.4c0,0.5,0.4,0.9,0.9,0.9h11.5C206.7,77.5,207.1,77.1,207.1,76.6 M209,77.2
	c0,1.2-0.9,2.2-2.2,2.2H194c-1.2,0-2.2-0.9-2.2-2.2v-13c0-1.2,0.9-2.2,2.2-2.2h12.9c1.2,0,2.2,0.9,2.2,2.2L209,77.2L209,77.2z"/>
<path fill="#231F20" d="M201.6,166.6c-1.1,0-2.1-0.6-2.4-1.2c0,0-0.6,2.4-0.7,2.7c-0.4,1.6-1.7,3.2-1.8,3.3
	c-0.1,0.1-0.2,0.1-0.2-0.1s-0.4-2.2,0-3.8c0.2-0.8,1.3-5.4,1.3-5.4s-0.3-0.7-0.3-1.6c0-1.4,0.8-2.6,1.9-2.6c0.9,0,1.3,0.7,1.3,1.5
	c0,0.9-0.6,2.3-0.9,3.6c-0.3,1,0.5,1.9,1.6,1.9c1.8,0,3.2-2.4,3.2-5.3c0-2.2-1.4-3.8-4.1-3.8c-3,0-4.9,2.3-4.9,4.8
	c0,0.8,0.3,1.4,0.7,1.9c0.2,0.2,0.2,0.3,0.2,0.6c-0.1,0.2-0.2,0.7-0.2,0.8c-0.1,0.3-0.3,0.4-0.5,0.3c-1.4-0.6-2.1-2.1-2.1-3.8
	c0-2.8,2.4-6.2,7.1-6.2c3.8,0,6.3,2.8,6.3,5.7C207,163.7,204.8,166.6,201.6,166.6"/>
<path d="M192.6,204.6c0,1.4,0.5,2.5,1.4,3.2c0.8,0.5,1.7,0.6,2.2,0.6c0.1,0,0.2,0,0.3,0c0,0-0.2,1,0.6,1.9H197
	c-1.3,0-5.4,0.3-5.4,3.7s3.8,3.6,4.6,3.6c0.1,0,0.1,0,0.1,0s0.1,0,0.2,0c0.5,0,1.7-0.1,2.9-0.6c1.5-0.7,2.3-2,2.3-3.8
	c0-1.7-1.2-2.8-2.1-3.5c-0.5-0.4-1-0.8-1-1.2s0.3-0.7,0.7-1.1c0.7-0.6,1.3-1.4,1.3-3.1c0-1.4-0.2-2.4-1.3-3c0.1-0.1,0.6-0.1,0.7-0.1
	c0.6-0.1,1.5-0.2,1.5-0.7v-0.1H197C197.1,200.2,192.6,200.4,192.6,204.6z M199.9,213.3c0.1,1.4-1.1,2.4-2.9,2.5
	c-1.8,0.1-3.3-0.7-3.4-2.1c-0.1-0.7,0.2-1.3,0.8-1.8c0.6-0.5,1.4-0.8,2.2-0.9c0.1,0,0.2,0,0.3,0
	C198.7,211.1,199.8,212.1,199.9,213.3z M198.7,203.6c0.4,1.6-0.2,3.2-1.3,3.5c-0.1,0.1-0.2,0.1-0.4,0.1c-1,0-1.9-1-2.3-2.3
	c-0.2-0.8-0.2-1.4,0.1-2.1c0.2-0.6,0.6-1.1,1.2-1.2c0.1-0.1,0.2-0.1,0.4-0.1C197.5,201.4,198.2,201.9,198.7,203.6z M206.3,207v-2.9
	h-1.9v2.9h-2.9v1.9h2.9v2.9h1.9v-2.9h2.9V207H206.3z"/>
<g>
	<path d="M206,254.5h-11.1c-1.8,0-3.2,1.4-3.2,3.2v2.6c0,1.8,1.4,3.2,3.2,3.2H206c1.8,0,3.2-1.4,3.2-3.2v-2.6
		C209.1,255.9,207.7,254.5,206,254.5z M197.2,256.5h-1v5.1h-1v-5.1h-1v-0.9h3.1C197.2,255.6,197.2,256.5,197.2,256.5z M200.1,261.6
		h-0.9v-0.4c-0.2,0.2-0.3,0.3-0.5,0.4s-0.3,0.2-0.5,0.2s-0.3-0.1-0.4-0.2c-0.1-0.1-0.2-0.3-0.2-0.6v-3.7h0.9v3.4
		c0,0.1,0,0.2,0.1,0.2c0.1,0,0.1,0.1,0.2,0.1c0.1,0,0.2-0.1,0.2-0.1c0.1-0.1,0.2-0.2,0.3-0.2v-3.3h0.9
		C200.1,257.2,200.1,261.6,200.1,261.6z M203.3,260.7c0,0.3-0.1,0.6-0.2,0.7c-0.1,0.2-0.3,0.2-0.6,0.2c-0.2,0-0.3-0.1-0.4-0.1
		c-0.1-0.1-0.3-0.2-0.4-0.3v0.3h-0.9v-5.9h0.9v1.9c0.1-0.1,0.2-0.2,0.4-0.3c0.1-0.1,0.3-0.1,0.4-0.1c0.3,0,0.5,0.1,0.6,0.3
		c0.2,0.2,0.2,0.4,0.2,0.8V260.7L203.3,260.7z M206.4,259.5h-1.7v0.8c0,0.2,0.1,0.4,0.1,0.5s0.2,0.1,0.3,0.1c0.2,0,0.2-0.1,0.3-0.1
		c0.1-0.1,0.1-0.2,0.1-0.5v-0.2h0.9v0.2c0,0.4-0.1,0.8-0.3,1s-0.6,0.3-1,0.3c-0.4,0-0.7-0.1-0.9-0.4c-0.2-0.2-0.3-0.6-0.3-1v-2
		c0-0.4,0.1-0.7,0.4-0.9c0.2-0.2,0.6-0.3,0.9-0.3s0.7,0.1,0.9,0.3c0.2,0.2,0.3,0.6,0.3,0.9V259.5L206.4,259.5z"/>
	<path d="M205.1,257.8c-0.2,0-0.2,0.1-0.3,0.1c-0.1,0.1-0.1,0.2-0.1,0.4v0.4h0.8v-0.4c0-0.2-0.1-0.3-0.1-0.4
		C205.3,257.9,205.2,257.8,205.1,257.8z"/>
	<path d="M202.1,257.8c-0.1,0-0.1,0-0.2,0.1s-0.1,0.1-0.2,0.1v2.7c0.1,0.1,0.2,0.1,0.2,0.2c0.1,0.1,0.1,0.1,0.2,0.1
		c0.1,0,0.2-0.1,0.2-0.1c0.1-0.1,0.1-0.2,0.1-0.3v-2.3c0-0.2-0.1-0.3-0.1-0.3C202.2,257.9,202.2,257.8,202.1,257.8z"/>
	<polygon points="196.3,252.9 197.5,252.9 197.5,250.2 198.8,246.4 197.6,246.4 197,249 196.8,249 196.1,246.4 195,246.4 
		196.3,250.3 	"/>
	<path d="M200.3,253.1c0.4,0,0.8-0.1,1.1-0.3c0.3-0.2,0.4-0.6,0.4-1v-2.5c0-0.4-0.1-0.7-0.4-0.9c-0.3-0.2-0.6-0.3-1-0.3
		s-0.8,0.1-1.1,0.3c-0.3,0.2-0.4,0.5-0.4,0.9v2.5c0,0.4,0.1,0.7,0.4,1C199.5,252.9,199.8,253.1,200.3,253.1z M199.8,249.2
		c0-0.1,0.1-0.2,0.1-0.3c0.1-0.1,0.2-0.1,0.3-0.1c0.1,0,0.2,0.1,0.3,0.1c0.1,0.1,0.1,0.2,0.1,0.3v2.7c0,0.1-0.1,0.2-0.1,0.3
		c-0.1,0.1-0.2,0.1-0.3,0.1c-0.1,0-0.2-0.1-0.3-0.1c-0.1-0.1-0.1-0.2-0.1-0.3V249.2L199.8,249.2z"/>
	<path d="M203.2,253.1c0.2,0,0.4-0.1,0.6-0.2c0.2-0.1,0.4-0.3,0.6-0.4v0.6h1v-4.8h-1v3.7c-0.1,0.1-0.2,0.2-0.3,0.3
		c-0.1,0.1-0.2,0.1-0.3,0.1c-0.1,0-0.2,0-0.2-0.1c-0.1-0.1-0.1-0.1-0.1-0.2v-3.7h-1v4.1c0,0.3,0.1,0.5,0.2,0.7
		C202.8,252.9,203,253.1,203.2,253.1z"/>
</g>
<g>
	<path d="M192.3,299c0.5,0.3,7,3.7,7.2,3.9c0.2,0.1,0.6,0.2,0.9,0.2s0.6-0.1,0.9-0.2c0.2-0.1,6.8-3.6,7.2-3.9c0.5-0.3,0.9-1,0.1-1
		h-16.3C191.4,298,191.8,298.8,192.3,299z M208.7,301c-0.5,0.3-7.1,3.7-7.4,3.9c-0.3,0.2-0.6,0.2-0.9,0.2s-0.5,0-0.9-0.2
		c-0.3-0.2-6.9-3.6-7.4-3.9c-0.4-0.2-0.4,0-0.4,0.2s0,7.1,0,7.1c0,0.4,0.5,0.9,1,0.9h15.4c0.4,0,1-0.5,1-0.9c0,0,0-6.9,0-7.1
		C209,301,209,300.8,208.7,301z"/>
</g>
</svg>
